<?xml version="1.0" encoding="UTF-8"?><svg id="Camada_2" xmlns="http://www.w3.org/2000/svg" viewBox="0 0 150 150"><defs><style>.cls-1{fill:#ff570d;}</style></defs><g id="Camada_1-2"><path class="cls-1" d="M141.03,45.58h-36.29V9.26c0-5.11-4.02-9.26-8.97-9.26H54.51c-4.96,0-8.97,4.14-8.97,9.26V45.58H8.97c-4.96,0-8.97,4.14-8.97,9.26v40.33c0,5.11,4.02,9.26,8.97,9.26H45.53v36.32c0,5.11,4.02,9.26,8.97,9.26h41.25c4.96,0,8.97-4.14,8.97-9.26v-36.32h36.29c4.96,0,8.97-4.14,8.97-9.26V54.84c0-5.11-4.02-9.26-8.97-9.26Zm0,49.59h-45.27v45.58H54.51v-45.58H8.97V54.84H54.51V9.26h41.25V54.84h45.27v40.33Z"/></g></svg>