<?xml version="1.0" encoding="utf-8"?>
<!-- Generator: Adobe Illustrator 26.5.2, SVG Export Plug-In . SVG Version: 6.00 Build 0)  -->
<svg version="1.1" id="Camada_2_00000119820479707960530750000012310768719042345888_"
	 xmlns="http://www.w3.org/2000/svg" xmlns:xlink="http://www.w3.org/1999/xlink" x="0px" y="0px" viewBox="0 0 600 69.9"
	 style="enable-background:new 0 0 600 69.9;" xml:space="preserve">
<style type="text/css">
	.st0{fill:#FF570D;}
</style>
<g id="Camada_1-2">
	<g>
		<path class="st0" d="M449.3,15.8c-0.6-0.9-1.5-1.4-2.6-1.4h-13.5c-1.3,0-2.4,0.8-2.9,1.9l-10.5,24.6l-10.3-24.6
			c-0.5-1.2-1.6-1.9-2.9-1.9H392c-1,0-2,0.5-2.6,1.4c-0.6,0.9-0.7,2-0.3,2.9L409.7,67c0.5,1.2,1.6,1.9,2.9,1.9H426
			c1.3,0,2.4-0.7,2.9-1.9l20.7-48.3C450,17.8,449.9,16.7,449.3,15.8L449.3,15.8z M426,65.8h-13.4L392,17.5h14.8L419.8,49l13.4-31.4
			h13.5L426,65.8L426,65.8z"/>
		<path class="st0" d="M479.9,29.6c-2-1.1-4.2-1.7-6.6-1.7s-4.6,0.6-6.6,1.7c-2,1.1-3.5,2.8-4.7,4.9s-1.7,4.5-1.7,7.2
			s0.6,5.1,1.7,7.2s2.7,3.7,4.7,4.9s4.2,1.7,6.6,1.7s4.6-0.6,6.6-1.7c2-1.2,3.5-2.8,4.7-4.9s1.7-4.5,1.7-7.2s-0.6-5.1-1.7-7.2
			C483.4,32.4,481.9,30.7,479.9,29.6z M481.9,47.4c-0.9,1.6-2,2.8-3.5,3.7c-1.5,0.9-3.2,1.3-5,1.3s-3.5-0.4-5-1.3
			c-1.5-0.9-2.6-2.1-3.5-3.7c-0.9-1.6-1.3-3.5-1.3-5.7s0.4-4.1,1.3-5.7c0.9-1.6,2-2.8,3.5-3.7c1.5-0.9,3.2-1.3,5-1.3s3.5,0.4,5,1.3
			c1.5,0.9,2.6,2.1,3.5,3.7c0.9,1.6,1.3,3.5,1.3,5.7S482.8,45.7,481.9,47.4L481.9,47.4z"/>
		<path class="st0" d="M596.9,52.1h-22.1v-2.6h18.3c1.7,0,3.1-1.4,3.1-3.1V36.2c0-1.7-1.4-3.1-3.1-3.1h-18.3v-1.9H596
			c1.7,0,3.1-1.4,3.1-3.1V17.5c0-1.7-1.4-3.1-3.1-3.1h-1.3c0.3-1,0-2.1-0.6-2.8l-9-10.5c-0.6-0.7-1.5-1.1-2.4-1.1h-11.3
			c-0.9,0-1.8,0.4-2.4,1.1l-9,10.5c-0.7,0.8-0.9,1.9-0.6,2.8h-1.3c-1.7,0-3.1,1.4-3.1,3.1v7.1c-0.1-0.3-0.3-0.7-0.5-1
			c-2.7-3.3-6-5.9-10-7.7c-3.9-1.7-8.4-2.6-13.2-2.6c-5.5,0-10.6,1.2-15.1,3.6c-4.5,2.4-8.1,5.8-10.7,10.1c-1.4,2.4-2.5,5-3.1,7.7
			c-0.6-2.7-1.7-5.3-3.1-7.7c-2.6-4.3-6.2-7.7-10.8-10.1c-4.5-2.4-9.6-3.6-15.2-3.6S462.5,14.7,458,17c-4.5,2.4-8.2,5.8-10.8,10.1
			c-2.6,4.3-3.9,9.2-3.9,14.5s1.3,10.2,3.9,14.5c2.6,4.3,6.2,7.7,10.8,10.1c4.5,2.4,9.6,3.6,15.2,3.6s10.7-1.2,15.2-3.6
			c4.5-2.4,8.2-5.8,10.8-10.1c1.5-2.4,2.5-5,3.1-7.7c0.6,2.8,1.7,5.3,3.1,7.7c2.6,4.3,6.2,7.7,10.7,10.1c4.5,2.4,9.5,3.6,15.1,3.6
			c4.8,0,9.3-0.9,13.2-2.6c4-1.8,7.3-4.3,10-7.7c0.2-0.3,0.4-0.6,0.5-1v7.1c0,1.7,1.4,3.1,3.1,3.1h38.8c1.7,0,3.1-1.4,3.1-3.1V55.2
			C600,53.5,598.6,52.1,596.9,52.1L596.9,52.1z M496.6,54.5c-2.3,3.8-5.5,6.8-9.6,9c-4.1,2.2-8.6,3.2-13.8,3.2s-9.7-1.1-13.8-3.2
			c-4.1-2.2-7.3-5.2-9.6-9c-2.3-3.8-3.5-8.1-3.5-12.9s1.2-9.1,3.5-12.9s5.5-6.8,9.6-9c4.1-2.2,8.6-3.2,13.8-3.2s9.7,1.1,13.8,3.2
			c4.1,2.2,7.3,5.1,9.6,9c2.3,3.8,3.5,8.1,3.5,12.9S498.9,50.7,496.6,54.5z M543.2,64.4c-3.5,1.6-7.5,2.3-11.9,2.3
			c-5.1,0-9.6-1.1-13.6-3.2s-7.2-5.1-9.5-8.9c-2.3-3.8-3.5-8.1-3.5-13s1.1-9.2,3.5-13c2.3-3.8,5.5-6.8,9.5-8.9s8.6-3.2,13.6-3.2
			c4.4,0,8.4,0.8,11.9,2.3s6.5,3.8,8.8,6.8l-8.7,7.9c-3.1-3.8-6.9-5.6-11.4-5.6c-2.6,0-5,0.6-7,1.7c-2,1.1-3.6,2.8-4.8,4.9
			s-1.7,4.5-1.7,7.2s0.6,5.1,1.7,7.2s2.7,3.7,4.8,4.9c2,1.2,4.4,1.7,7,1.7c4.5,0,8.3-1.9,11.4-5.7l8.7,7.9
			C549.7,60.6,546.8,62.8,543.2,64.4L543.2,64.4z M555,56.7c-0.2-0.5-0.5-1-0.9-1.3l-8.7-7.9c-0.6-0.5-1.3-0.8-2.1-0.8
			c-0.1,0-0.2,0-0.2,0c-0.8,0.1-1.6,0.5-2.2,1.1c-2.5,3-5.5,4.5-9,4.5c-2.1,0-3.9-0.4-5.5-1.3c-1.5-0.9-2.7-2-3.5-3.6
			c-0.9-1.7-1.3-3.5-1.3-5.7s0.4-4.1,1.3-5.7c0.8-1.6,2-2.8,3.5-3.6c1.6-0.9,3.4-1.3,5.5-1.3c3.5,0,6.5,1.5,9,4.5
			c0.5,0.7,1.3,1.1,2.2,1.1c0.1,0,0.2,0,0.2,0c0.8,0,1.5-0.3,2.1-0.8l8.7-7.9c0.4-0.4,0.7-0.8,0.9-1.3V56.7L555,56.7z M571.4,3.1
			h11.3l9,10.5H583l-5.9-5.2l-5.9,5.2h-8.7L571.4,3.1L571.4,3.1z M579.2,14.4H575l2.2-1.9L579.2,14.4L579.2,14.4z M596.9,65.8h-38.8
			V17.5H596v10.5h-24.3v8.1h21.4v10.2h-21.4v8.8h25.2L596.9,65.8L596.9,65.8z"/>
		<path class="st0" d="M372.1,30.7h-12.6V18.5c0-1.7-1.4-3.1-3.1-3.1H342c-1.7,0-3.1,1.4-3.1,3.1v12.2h-12.7c-1.7,0-3.1,1.4-3.1,3.1
			v13.6c0,1.7,1.4,3.1,3.1,3.1h12.7v12.2c0,1.7,1.4,3.1,3.1,3.1h14.3c1.7,0,3.1-1.4,3.1-3.1V50.5h12.6c1.7,0,3.1-1.4,3.1-3.1V33.8
			C375.2,32.1,373.8,30.7,372.1,30.7z M372.1,47.4h-15.7v15.3H342V47.4h-15.8V33.8H342V18.5h14.3v15.3h15.7V47.4z"/>
		<path class="st0" d="M38.7,49.8c-3.1,3.8-6.9,5.7-11.4,5.7c-2.6,0-5-0.6-7-1.7c-2-1.2-3.6-2.8-4.8-4.9c-1.1-2.1-1.7-4.5-1.7-7.2
			s0.6-5.1,1.7-7.2s2.7-3.7,4.8-4.9s4.4-1.7,7-1.7c4.5,0,8.3,1.9,11.4,5.7l8.7-7.9c-2.3-3-5.3-5.2-8.8-6.8c-3.5-1.6-7.5-2.4-12-2.4
			c-5.1,0-9.6,1.1-13.7,3.2c-4,2.1-7.2,5.1-9.5,8.9C1.1,32.5,0,36.8,0,41.6s1.1,9.2,3.5,13c2.3,3.8,5.5,6.8,9.5,9
			c4,2.1,8.6,3.2,13.7,3.2c4.4,0,8.4-0.8,12-2.3s6.5-3.8,8.8-6.8C47.4,57.7,38.7,49.8,38.7,49.8z"/>
		<path class="st0" d="M68.3,17.4L46.9,65.8h14l3.8-9.4h20.5l3.8,9.4h14.2L81.7,17.4H68.3L68.3,17.4z M68.7,46.3l6.2-15.5l6.2,15.5
			H68.7L68.7,46.3z"/>
		<path class="st0" d="M148.2,44.5c1.6-2.6,2.4-5.7,2.4-9.2s-0.9-6.8-2.6-9.5s-4.2-4.8-7.5-6.2c-3.2-1.5-7-2.2-11.4-2.2H107v48.4
			h13.7V53h7.5l8.8,12.9h14.7l-10.4-15.2C144.2,49.2,146.6,47.1,148.2,44.5L148.2,44.5z M134.7,40.6c-1.4,1.2-3.6,1.8-6.4,1.8h-7.6
			V28.2h7.6c2.8,0,4.9,0.6,6.4,1.9c1.4,1.2,2.1,3,2.1,5.3S136.1,39.4,134.7,40.6L134.7,40.6z"/>
		<polygon class="st0" points="196.3,17.4 152.9,17.4 152.9,28.3 167.8,28.3 167.8,65.8 181.5,65.8 181.5,28.3 196.3,28.3 		"/>
		<path class="st0" d="M214.6,10.6c0.6-0.6,1.3-1,2.2-1c0.5,0,0.9,0.1,1.4,0.4c0.4,0.2,1.1,0.6,2,1.2c1.2,0.8,2.3,1.5,3.3,2
			c1,0.5,2.1,0.7,3.4,0.7c2.6,0,4.7-1,6.3-3c1.6-2,2.4-4.6,2.5-7.9h-6.4c-0.1,1.1-0.4,1.9-1,2.5c-0.6,0.6-1.3,0.9-2.2,0.9
			c-0.5,0-0.9-0.1-1.4-0.3c-0.4-0.2-1.1-0.6-2-1.2c-1.2-0.8-2.4-1.5-3.3-1.9c-1-0.5-2.1-0.7-3.3-0.7c-2.6,0-4.7,1-6.3,3
			c-1.6,2-2.4,4.7-2.5,8h6.4C213.7,12.2,214,11.3,214.6,10.6L214.6,10.6z"/>
		<path class="st0" d="M214.6,17.4l-21.4,48.4h14l3.8-9.4h20.5l3.8,9.4h14.2L228,17.4H214.6L214.6,17.4z M215,46.3l6.2-15.5
			l6.2,15.5H215L215,46.3z"/>
		<path class="st0" d="M290.9,19.7c-4.1-2.2-8.7-3.3-13.8-3.3s-9.7,1.1-13.8,3.3c-4.1,2.2-7.3,5.2-9.6,9s-3.5,8.1-3.5,12.9
			s1.2,9.1,3.5,12.9s5.5,6.8,9.6,9s8.7,3.3,13.8,3.3s9.7-1.1,13.8-3.3c4.1-2.2,7.3-5.2,9.6-9s3.5-8.1,3.5-12.9s-1.2-9.1-3.5-12.9
			S294.9,21.9,290.9,19.7z M288.4,48.8c-1.1,2.1-2.7,3.7-4.7,4.9c-2,1.2-4.2,1.7-6.6,1.7s-4.7-0.6-6.6-1.7c-2-1.2-3.5-2.8-4.7-4.9
			c-1.1-2.1-1.7-4.5-1.7-7.2s0.6-5.1,1.7-7.2c1.1-2.1,2.7-3.7,4.7-4.9s4.2-1.7,6.6-1.7s4.7,0.6,6.6,1.7s3.5,2.8,4.7,4.9
			c1.1,2.1,1.7,4.5,1.7,7.2S289.6,46.8,288.4,48.8z"/>
	</g>
</g>
</svg>
