<?xml version="1.0" encoding="UTF-8"?><svg id="Camada_2" xmlns="http://www.w3.org/2000/svg" viewBox="0 0 600 69.87"><defs><style>.cls-1{fill:#fff;}.cls-2{fill:#ff570d;}</style></defs><g id="Camada_1-2"><g><path class="cls-2" d="M449.32,15.81c-.58-.87-1.55-1.4-2.6-1.4h-13.51c-1.25,0-2.38,.75-2.87,1.9l-10.48,24.63-10.25-24.61c-.48-1.16-1.62-1.92-2.88-1.92h-14.75c-1.05,0-2.02,.53-2.6,1.4-.58,.87-.68,1.98-.27,2.94l20.61,48.26c.49,1.15,1.62,1.89,2.87,1.89h13.44c1.25,0,2.37-.74,2.86-1.89l20.68-48.26c.41-.96,.31-2.07-.26-2.94Zm-23.28,49.98h-13.44l-20.61-48.26h14.75l13.1,31.44,13.38-31.44h13.51l-20.68,48.26Z"/><path class="cls-2" d="M479.89,29.59c-1.98-1.15-4.18-1.72-6.62-1.72s-4.64,.58-6.62,1.72c-1.98,1.15-3.54,2.77-4.69,4.86-1.15,2.09-1.72,4.49-1.72,7.2s.57,5.11,1.72,7.2c1.15,2.09,2.71,3.71,4.69,4.86,1.98,1.15,4.18,1.72,6.62,1.72s4.64-.57,6.62-1.72c1.98-1.15,3.54-2.77,4.69-4.86,1.15-2.09,1.72-4.49,1.72-7.2s-.58-5.11-1.72-7.2c-1.15-2.09-2.71-3.71-4.69-4.86Zm1.96,17.77c-.88,1.6-2.03,2.8-3.52,3.67-1.51,.88-3.16,1.3-5.05,1.3s-3.55-.43-5.05-1.3c-1.49-.87-2.65-2.07-3.52-3.67-.9-1.64-1.34-3.51-1.34-5.71s.44-4.07,1.34-5.7c.88-1.6,2.03-2.8,3.52-3.67,1.51-.88,3.16-1.3,5.05-1.3s3.55,.43,5.05,1.3c1.49,.87,2.64,2.07,3.52,3.67,.9,1.64,1.34,3.51,1.34,5.7s-.44,4.06-1.34,5.7Z"/><path class="cls-2" d="M596.88,52.12h-22.12v-2.59h18.33c1.72,0,3.12-1.39,3.12-3.12v-10.2c0-1.72-1.39-3.12-3.12-3.12h-18.33v-1.9h21.22c1.72,0,3.12-1.39,3.12-3.12v-10.55c0-1.72-1.39-3.12-3.12-3.12h-1.27c.27-.98,.04-2.05-.64-2.84l-8.96-10.48c-.59-.69-1.46-1.09-2.37-1.09h-11.31c-.91,0-1.78,.4-2.37,1.09l-8.96,10.48c-.68,.79-.91,1.86-.64,2.84h-1.34c-1.72,0-3.12,1.39-3.12,3.12v7.15c-.11-.34-.28-.66-.51-.95-2.65-3.32-6.02-5.9-10-7.66-3.92-1.73-8.36-2.61-13.19-2.61-5.55,0-10.62,1.2-15.08,3.57-4.51,2.4-8.1,5.78-10.69,10.07-1.44,2.4-2.49,4.99-3.13,7.74-.65-2.73-1.7-5.3-3.15-7.69-2.61-4.28-6.23-7.68-10.78-10.1-4.5-2.39-9.62-3.6-15.22-3.6s-10.71,1.21-15.22,3.6c-4.55,2.42-8.18,5.81-10.78,10.1-2.61,4.29-3.94,9.17-3.94,14.51s1.32,10.22,3.94,14.51c2.6,4.28,6.23,7.68,10.78,10.09,4.5,2.39,9.62,3.6,15.22,3.6s10.71-1.21,15.22-3.6c4.55-2.42,8.18-5.81,10.78-10.09,1.45-2.39,2.5-4.96,3.15-7.69,.64,2.76,1.69,5.35,3.13,7.74,2.58,4.29,6.18,7.68,10.69,10.07,4.46,2.37,9.53,3.57,15.08,3.57,4.83,0,9.26-.88,13.19-2.61,3.99-1.76,7.35-4.34,10-7.67,.23-.29,.4-.62,.51-.95v7.15c0,1.72,1.39,3.12,3.12,3.12h38.75c1.72,0,3.12-1.39,3.12-3.12v-10.55c0-1.72-1.39-3.12-3.12-3.12Zm-100.28,2.43c-2.32,3.82-5.52,6.8-9.58,8.96-4.07,2.16-8.65,3.24-13.75,3.24s-9.69-1.08-13.75-3.24c-4.07-2.16-7.26-5.15-9.58-8.96-2.32-3.81-3.48-8.11-3.48-12.89s1.16-9.08,3.48-12.89c2.32-3.81,5.52-6.8,9.58-8.96,4.07-2.16,8.65-3.24,13.75-3.24s9.69,1.08,13.75,3.24c4.07,2.16,7.26,5.15,9.58,8.96,2.32,3.82,3.48,8.11,3.48,12.89s-1.16,9.08-3.48,12.89Zm46.64,9.86c-3.54,1.56-7.51,2.34-11.93,2.34-5.06,0-9.6-1.07-13.62-3.21-4.02-2.14-7.18-5.11-9.48-8.93-2.3-3.81-3.45-8.14-3.45-12.96s1.15-9.15,3.45-12.96c2.3-3.81,5.46-6.79,9.48-8.93,4.02-2.14,8.56-3.21,13.62-3.21,4.41,0,8.39,.78,11.93,2.34,3.54,1.56,6.48,3.82,8.83,6.76l-8.69,7.86c-3.13-3.77-6.92-5.65-11.38-5.65-2.62,0-4.95,.58-7,1.72-2.05,1.15-3.63,2.77-4.76,4.86-1.13,2.09-1.69,4.49-1.69,7.2s.56,5.11,1.69,7.2c1.13,2.09,2.71,3.71,4.76,4.86,2.04,1.15,4.38,1.72,7,1.72,4.46,0,8.25-1.88,11.38-5.65l8.69,7.86c-2.34,2.94-5.29,5.19-8.83,6.76Zm11.78-7.75c-.16-.49-.45-.95-.86-1.32l-8.69-7.86c-.57-.52-1.32-.81-2.09-.81-.07,0-.15,0-.22,0-.85,.06-1.63,.46-2.18,1.12-2.53,3.05-5.46,4.53-8.98,4.53-2.1,0-3.89-.43-5.47-1.32-1.54-.86-2.69-2.05-3.54-3.62-.89-1.65-1.32-3.52-1.32-5.73s.43-4.08,1.32-5.73c.85-1.58,2.01-2.76,3.54-3.62,1.59-.89,3.38-1.32,5.47-1.32,3.51,0,6.45,1.48,8.98,4.53,.54,.65,1.33,1.06,2.18,1.12,.07,0,.15,0,.22,0,.77,0,1.52-.29,2.09-.81l8.69-7.86c.41-.37,.7-.83,.86-1.32v30.01Zm16.42-53.55h11.31l8.96,10.48h-8.69l-5.93-5.24-5.93,5.24h-8.69l8.96-10.48Zm7.8,11.29h-4.29l2.15-1.9,2.15,1.9Zm17.64,51.38h-38.75V17.52h37.85v10.55h-24.34v8.14h21.44v10.2h-21.44v8.83h25.23v10.55Z"/><path class="cls-2" d="M372.06,30.68h-12.6v-12.23c0-1.72-1.39-3.12-3.12-3.12h-14.32c-1.72,0-3.12,1.39-3.12,3.12v12.23h-12.69c-1.72,0-3.12,1.39-3.12,3.12v13.57c0,1.72,1.39,3.12,3.12,3.12h12.69v12.23c0,1.72,1.39,3.12,3.12,3.12h14.32c1.72,0,3.12-1.39,3.12-3.12v-12.23h12.6c1.72,0,3.12-1.39,3.12-3.12v-13.57c0-1.72-1.39-3.12-3.12-3.12Zm0,16.69h-15.71v15.34h-14.32v-15.34h-15.81v-13.57h15.81v-15.34h14.32v15.34h15.71v13.57Z"/><path class="cls-1" d="M38.72,49.79c-3.14,3.78-6.94,5.67-11.41,5.67-2.63,0-4.97-.58-7.02-1.73-2.05-1.15-3.64-2.78-4.77-4.87-1.13-2.1-1.69-4.51-1.69-7.23s.56-5.13,1.69-7.23c1.13-2.1,2.72-3.72,4.77-4.87,2.05-1.15,4.39-1.73,7.02-1.73,4.47,0,8.27,1.89,11.41,5.67l8.71-7.88c-2.35-2.95-5.3-5.21-8.85-6.78-3.55-1.57-7.54-2.35-11.96-2.35-5.07,0-9.62,1.07-13.66,3.22-4.03,2.14-7.2,5.13-9.51,8.95-2.31,3.83-3.46,8.16-3.46,13s1.15,9.17,3.46,13c2.3,3.83,5.47,6.81,9.51,8.95,4.03,2.14,8.58,3.22,13.66,3.22,4.43,0,8.41-.78,11.96-2.35,3.55-1.57,6.5-3.83,8.85-6.78l-8.71-7.88Z"/><path class="cls-1" d="M68.25,17.43l-21.37,48.4h13.97l3.8-9.4h20.47l3.8,9.4h14.24l-21.44-48.4h-13.48Zm.41,28.9l6.22-15.49,6.22,15.49h-12.45Z"/><path class="cls-1" d="M148.21,44.5c1.64-2.6,2.45-5.66,2.45-9.16s-.88-6.81-2.63-9.51c-1.75-2.7-4.24-4.77-7.47-6.22-3.23-1.45-7.03-2.18-11.41-2.18h-22.13v48.4h13.69v-12.86h7.47l8.78,12.86h14.66l-10.44-15.21c3.04-1.47,5.38-3.51,7.02-6.12Zm-13.52-3.94c-1.43,1.22-3.55,1.83-6.36,1.83h-7.61v-14.17h7.61c2.81,0,4.93,.62,6.36,1.87,1.43,1.24,2.14,3,2.14,5.26s-.72,4-2.14,5.22Z"/><polygon class="cls-1" points="196.3 17.43 152.95 17.43 152.95 28.28 167.82 28.28 167.82 65.83 181.51 65.83 181.51 28.28 196.3 28.28 196.3 17.43"/><path class="cls-1" d="M214.56,10.65c.55-.64,1.29-.97,2.21-.97,.46,0,.91,.12,1.35,.35,.44,.23,1.09,.65,1.97,1.24,1.2,.83,2.29,1.49,3.28,1.97,.99,.48,2.11,.73,3.35,.73,2.63,0,4.72-.99,6.29-2.97,1.57-1.98,2.4-4.61,2.49-7.88h-6.43c-.09,1.06-.41,1.9-.97,2.52-.55,.62-1.29,.93-2.21,.93-.46,0-.91-.11-1.35-.35-.44-.23-1.1-.64-1.97-1.24-1.24-.83-2.35-1.47-3.32-1.94-.97-.46-2.07-.69-3.32-.69-2.63,0-4.73,.99-6.29,2.97-1.57,1.98-2.4,4.66-2.49,8.02h6.43c.09-1.15,.41-2.05,.97-2.7Z"/><path class="cls-1" d="M214.56,17.43l-21.37,48.4h13.97l3.8-9.4h20.47l3.8,9.4h14.24l-21.44-48.4h-13.48Zm.41,28.9l6.22-15.49,6.22,15.49h-12.45Z"/><path class="cls-1" d="M290.86,19.71c-4.08-2.17-8.68-3.25-13.79-3.25s-9.72,1.08-13.79,3.25c-4.08,2.17-7.28,5.16-9.61,8.99-2.33,3.83-3.49,8.14-3.49,12.93s1.16,9.1,3.49,12.93c2.33,3.83,5.53,6.82,9.61,8.99,4.08,2.17,8.68,3.25,13.79,3.25s9.72-1.08,13.79-3.25c4.08-2.17,7.28-5.16,9.61-8.99,2.33-3.83,3.49-8.14,3.49-12.93s-1.16-9.1-3.49-12.93c-2.33-3.83-5.53-6.82-9.61-8.99Zm-2.45,29.14c-1.15,2.1-2.72,3.72-4.7,4.87-1.98,1.15-4.2,1.73-6.64,1.73s-4.66-.58-6.64-1.73c-1.98-1.15-3.55-2.78-4.7-4.87-1.15-2.1-1.73-4.51-1.73-7.23s.58-5.13,1.73-7.23c1.15-2.1,2.72-3.72,4.7-4.87,1.98-1.15,4.19-1.73,6.64-1.73s4.66,.58,6.64,1.73c1.98,1.15,3.55,2.78,4.7,4.87,1.15,2.1,1.73,4.51,1.73,7.23s-.58,5.13-1.73,7.23Z"/></g></g></svg>