<?xml version="1.0" encoding="UTF-8"?><svg id="Camada_2" xmlns="http://www.w3.org/2000/svg" viewBox="0 0 590.54 234.96"><defs><style>.cls-1{fill:#606060;}</style></defs><g id="Camada_1-2"><g><path class="cls-1" d="M124.37,68.69c-4.54,5.47-10.05,8.21-16.52,8.21-3.8,0-7.19-.83-10.16-2.5-2.97-1.67-5.27-4.02-6.91-7.06-1.64-3.04-2.45-6.52-2.45-10.46s.82-7.43,2.45-10.46c1.63-3.04,3.94-5.39,6.91-7.06,2.97-1.67,6.36-2.5,10.16-2.5,6.47,0,11.98,2.74,16.52,8.21l12.62-11.41c-3.4-4.27-7.68-7.54-12.82-9.81-5.14-2.27-10.91-3.4-17.32-3.4-7.34,0-13.94,1.55-19.78,4.66-5.84,3.1-10.43,7.43-13.77,12.97-3.34,5.54-5.01,11.82-5.01,18.82s1.67,13.28,5.01,18.82c3.34,5.54,7.93,9.86,13.77,12.97,5.84,3.1,12.43,4.66,19.78,4.66,6.41,0,12.18-1.14,17.32-3.4,5.14-2.27,9.41-5.54,12.82-9.81l-12.62-11.41Z"/><path class="cls-1" d="M161.91,78.3h29.64l5.51,13.62h20.63l-31.04-70.09h-19.52l-30.94,70.09h20.23l5.51-13.62Zm14.82-37.05l9.01,22.43h-18.02l9.01-22.43Z"/><path class="cls-1" d="M243.12,73.29h10.81l12.72,18.62h21.23l-15.12-22.03c4.41-2.14,7.79-5.09,10.16-8.86,2.37-3.77,3.55-8.19,3.55-13.27s-1.27-9.86-3.81-13.77c-2.54-3.9-6.14-6.91-10.81-9.01-4.67-2.1-10.18-3.15-16.52-3.15h-32.04V91.92h19.83v-18.62Zm0-35.85h11.01c4.07,0,7.14,.9,9.21,2.7,2.07,1.8,3.1,4.34,3.1,7.61s-1.04,5.79-3.1,7.56c-2.07,1.77-5.14,2.65-9.21,2.65h-11.01v-20.53Z"/><polygon class="cls-1" points="311.3 91.92 331.13 91.92 331.13 37.55 352.56 37.55 352.56 21.83 289.78 21.83 289.78 37.55 311.3 37.55 311.3 91.92"/><path class="cls-1" d="M378.99,21.83l-30.94,70.09h20.23l5.51-13.62h29.64l5.51,13.62h20.63l-31.04-70.09h-19.53Zm.6,41.85l9.01-22.43,9.01,22.43h-18.02Z"/><path class="cls-1" d="M378.99,12.02c.8-.93,1.87-1.4,3.2-1.4,.67,0,1.32,.17,1.95,.5,.63,.33,1.59,.94,2.85,1.8,1.73,1.2,3.32,2.15,4.76,2.85,1.43,.7,3.05,1.05,4.86,1.05,3.8,0,6.84-1.43,9.11-4.31,2.27-2.87,3.47-6.67,3.6-11.41h-9.31c-.13,1.54-.6,2.75-1.4,3.65-.8,.9-1.87,1.35-3.2,1.35-.67,0-1.32-.17-1.95-.5-.64-.33-1.59-.93-2.85-1.8-1.8-1.2-3.4-2.14-4.81-2.8-1.4-.67-3-1-4.81-1-3.8,0-6.84,1.44-9.11,4.31-2.27,2.87-3.47,6.74-3.61,11.61h9.31c.13-1.67,.6-2.97,1.4-3.9Z"/><path class="cls-1" d="M449.53,88.61c5.91,3.14,12.57,4.71,19.98,4.71s14.07-1.57,19.98-4.71c5.91-3.14,10.55-7.48,13.92-13.02,3.37-5.54,5.06-11.78,5.06-18.72s-1.69-13.18-5.06-18.72c-3.37-5.54-8.01-9.88-13.92-13.02-5.91-3.14-12.57-4.71-19.98-4.71s-14.07,1.57-19.98,4.71c-5.91,3.14-10.55,7.48-13.92,13.02-3.37,5.54-5.06,11.78-5.06,18.72s1.69,13.18,5.06,18.72c3.37,5.54,8.01,9.88,13.92,13.02Zm3.55-42.2c1.67-3.04,3.94-5.39,6.81-7.06,2.87-1.67,6.07-2.5,9.61-2.5s6.74,.84,9.61,2.5c2.87,1.67,5.14,4.02,6.81,7.06,1.67,3.04,2.5,6.53,2.5,10.46s-.84,7.43-2.5,10.46c-1.67,3.04-3.94,5.39-6.81,7.06-2.87,1.67-6.07,2.5-9.61,2.5s-6.74-.83-9.61-2.5c-2.87-1.67-5.14-4.02-6.81-7.06-1.67-3.04-2.5-6.52-2.5-10.46s.83-7.43,2.5-10.46Z"/><path class="cls-1" d="M276.64,122.35c-1.2-1.82-3.24-2.92-5.42-2.92h-28.15c-2.6,0-4.95,1.55-5.97,3.95l-21.83,51.31-21.36-51.27c-1.01-2.42-3.37-3.99-5.99-3.99h-30.74c-2.18,0-4.21,1.09-5.42,2.91-1.2,1.82-1.41,4.12-.55,6.13l42.94,100.54c1.02,2.39,3.37,3.94,5.97,3.94h28.01c2.6,0,4.94-1.55,5.97-3.93l43.09-100.54c.86-2.01,.65-4.31-.55-6.13Zm-48.51,104.11h-28.01l-42.94-100.54h30.74l27.29,65.49,27.86-65.49h28.15l-43.09,100.54Z"/><path class="cls-1" d="M340.31,151.06c-4.12-2.39-8.71-3.59-13.79-3.59s-9.67,1.2-13.79,3.59c-4.12,2.39-7.37,5.77-9.77,10.13-2.39,4.36-3.59,9.36-3.59,15.01s1.2,10.65,3.59,15.01c2.39,4.36,5.65,7.73,9.77,10.13,4.12,2.39,8.71,3.59,13.79,3.59s9.67-1.2,13.79-3.59c4.12-2.39,7.37-5.77,9.77-10.13,2.39-4.36,3.59-9.36,3.59-15.01s-1.2-10.65-3.59-15.01c-2.39-4.36-5.65-7.73-9.77-10.13Zm4.08,37.02c-1.83,3.33-4.23,5.83-7.34,7.64-3.14,1.82-6.58,2.71-10.53,2.71s-7.39-.89-10.52-2.71c-3.11-1.81-5.51-4.31-7.34-7.64-1.88-3.42-2.79-7.3-2.79-11.89s.91-8.47,2.79-11.88c1.83-3.33,4.23-5.83,7.34-7.64,3.14-1.82,6.58-2.71,10.53-2.71s7.39,.89,10.53,2.71c3.1,1.81,5.51,4.31,7.34,7.64,1.88,3.42,2.79,7.3,2.79,11.88s-.91,8.47-2.79,11.88Z"/><path class="cls-1" d="M584.05,198h-46.08v-5.4h38.18c3.58,0,6.49-2.91,6.49-6.49v-21.26c0-3.58-2.91-6.49-6.49-6.49h-38.18v-3.97h44.21c3.58,0,6.49-2.91,6.49-6.49v-21.98c0-3.58-2.91-6.49-6.49-6.49h-2.64c.56-2.05,.08-4.27-1.33-5.92l-18.67-21.83c-1.23-1.44-3.04-2.27-4.93-2.27h-23.56c-1.9,0-3.7,.83-4.93,2.27l-18.67,21.83c-1.41,1.65-1.89,3.87-1.33,5.92h-2.78c-3.58,0-6.49,2.91-6.49,6.49v14.89c-.23-.7-.59-1.37-1.07-1.98-5.52-6.93-12.53-12.3-20.84-15.97-8.18-3.61-17.42-5.44-27.47-5.44-11.56,0-22.13,2.5-31.41,7.44-9.39,4.99-16.88,12.05-22.26,20.98-3.01,4.99-5.19,10.39-6.52,16.13-1.35-5.68-3.55-11.04-6.57-16.01-5.43-8.92-12.99-16-22.47-21.03-9.38-4.98-20.05-7.51-31.7-7.51s-22.32,2.53-31.7,7.51c-9.48,5.04-17.04,12.11-22.47,21.03-5.44,8.94-8.2,19.11-8.2,30.23s2.76,21.29,8.2,30.23c5.42,8.92,12.98,15.99,22.46,21.03,9.38,4.98,20.04,7.51,31.7,7.51s22.32-2.53,31.7-7.51c9.48-5.03,17.04-12.11,22.46-21.03,3.03-4.97,5.22-10.33,6.57-16.01,1.34,5.74,3.52,11.14,6.53,16.13,5.38,8.93,12.87,15.99,22.26,20.98,9.29,4.94,19.85,7.44,31.41,7.44,10.05,0,19.29-1.83,27.47-5.44,8.31-3.67,15.32-9.04,20.84-15.97,.49-.61,.84-1.28,1.07-1.98v14.88c0,3.58,2.91,6.49,6.49,6.49h80.72c3.58,0,6.49-2.91,6.49-6.49v-21.98c0-3.58-2.91-6.49-6.49-6.49Zm-208.9,5.05c-4.84,7.95-11.49,14.17-19.96,18.67-8.47,4.5-18.03,6.75-28.65,6.75s-20.18-2.25-28.65-6.75c-8.47-4.5-15.13-10.72-19.96-18.67-4.84-7.95-7.25-16.9-7.25-26.86s2.42-18.91,7.25-26.86c4.83-7.95,11.49-14.17,19.96-18.67,8.47-4.5,18.03-6.75,28.65-6.75s20.18,2.25,28.65,6.75c8.47,4.5,15.13,10.73,19.96,18.67,4.83,7.95,7.25,16.9,7.25,26.86s-2.42,18.91-7.25,26.86Zm97.16,20.54c-7.37,3.25-15.65,4.88-24.85,4.88-10.53,0-19.99-2.23-28.37-6.68-8.38-4.45-14.96-10.65-19.75-18.6-4.79-7.95-7.18-16.95-7.18-27s2.39-19.05,7.18-27c4.79-7.95,11.37-14.15,19.75-18.6,8.38-4.45,17.83-6.68,28.37-6.68,9.19,0,17.47,1.63,24.85,4.88,7.37,3.26,13.5,7.95,18.38,14.08l-18.1,16.37c-6.51-7.85-14.41-11.78-23.7-11.78-5.46,0-10.32,1.2-14.58,3.59-4.26,2.39-7.57,5.77-9.91,10.13-2.35,4.36-3.52,9.36-3.52,15.01s1.17,10.65,3.52,15.01c2.35,4.36,5.65,7.73,9.91,10.13,4.26,2.39,9.12,3.59,14.58,3.59,9.29,0,17.19-3.93,23.7-11.78l18.1,16.37c-4.88,6.13-11.01,10.82-18.38,14.08Zm22.74-18.89l-18.1-16.37c-1.2-1.08-2.75-1.68-4.35-1.68-.15,0-.31,0-.46,.02-1.77,.13-3.4,.97-4.53,2.33-5.26,6.35-11.38,9.43-18.7,9.43-4.37,0-8.1-.9-11.4-2.76-3.2-1.8-5.61-4.26-7.37-7.54-1.85-3.43-2.74-7.33-2.74-11.93s.9-8.51,2.74-11.93c1.77-3.28,4.18-5.75,7.38-7.55,3.31-1.86,7.03-2.76,11.4-2.76,7.32,0,13.44,3.09,18.7,9.43,1.13,1.36,2.77,2.2,4.53,2.33,.15,.01,.31,.02,.46,.02,1.6,0,3.16-.59,4.35-1.68l18.1-16.37c.85-.77,1.45-1.73,1.79-2.75v62.52c-.34-1.02-.94-1.98-1.79-2.75Zm36-108.8h23.56l18.67,21.83h-18.1l-12.35-10.92-12.35,10.92h-18.1l18.67-21.83Zm16.25,23.53h-8.94l4.47-3.95,4.47,3.95Zm36.75,107.03h-80.72V125.92h78.85v21.98h-50.7v16.95h44.67v21.26h-44.67v18.38h52.57v21.98Z"/><path class="cls-1" d="M101.98,137.25h-26.24v-25.47c0-3.58-2.91-6.49-6.49-6.49h-29.83c-3.58,0-6.49,2.91-6.49,6.49v25.47H6.49c-3.58,0-6.49,2.91-6.49,6.49v28.28c0,3.58,2.91,6.49,6.49,6.49h26.44v25.47c0,3.58,2.91,6.49,6.49,6.49h29.83c3.58,0,6.49-2.91,6.49-6.49v-25.47h26.24c3.58,0,6.49-2.91,6.49-6.49v-28.28c0-3.58-2.91-6.49-6.49-6.49Zm0,34.77h-32.73v31.96h-29.83v-31.96H6.49v-28.28H39.42v-31.96h29.83v31.96h32.73v28.28Z"/></g></g></svg>