<?xml version="1.0" encoding="UTF-8"?><svg id="Camada_2" xmlns="http://www.w3.org/2000/svg" viewBox="0 0 3162.95 795.37"><defs><style>.cls-1{fill:#e03413;}.cls-1,.cls-2,.cls-3,.cls-4,.cls-5,.cls-6,.cls-7,.cls-8,.cls-9,.cls-10,.cls-11{fill-rule:evenodd;}.cls-12,.cls-3{fill:#fff;}.cls-13{fill:#c6d240;}.cls-2{fill:#312781;}.cls-14{fill:#32bcad;}.cls-15{fill:#939598;}.cls-4{fill:#0699d4;}.cls-16{fill:#f39c01;}.cls-5{fill:#971915;}.cls-6{fill:#ffea01;}.cls-17{fill:#f4a200;}.cls-18{fill:#015095;}.cls-7{fill:#f7e725;}.cls-8{fill:#e40520;}.cls-9{fill:#070710;stroke:#221e20;stroke-miterlimit:22.93;stroke-width:.57px;}.cls-19{fill:#004a98;}.cls-20{fill:#df0d17;}.cls-21{fill:#007858;}.cls-22{fill:#e8610a;}.cls-23{fill:#1c1c1b;}.cls-10{fill:#0097d9;}.cls-11{fill:#286cb1;}</style></defs><g id="Camada_1-2"><g id="Visa"><g><polygon class="cls-18" points="231.33 230.84 258.9 69.07 303 69.07 275.41 230.84 231.33 230.84"/><path class="cls-18" d="M435.34,73.05c-8.74-3.28-22.42-6.79-39.52-6.79-43.57,0-74.26,21.94-74.52,53.39-.25,23.24,21.91,36.21,38.64,43.95,17.16,7.93,22.93,12.99,22.85,20.07-.11,10.84-13.71,15.8-26.38,15.8-17.65,0-27.02-2.45-41.51-8.49l-5.68-2.57-6.19,36.22c10.3,4.52,29.34,8.43,49.12,8.63,46.35,0,76.44-21.69,76.78-55.27,.17-18.4-11.58-32.41-37.02-43.95-15.41-7.48-24.85-12.48-24.75-20.06,0-6.72,7.99-13.91,25.25-13.91,14.42-.22,24.86,2.92,33,6.2l3.95,1.87,5.98-35.06"/><path class="cls-18" d="M548.41,69.22h-34.07c-10.56,0-18.45,2.88-23.09,13.42l-65.49,148.26h46.3s7.57-19.93,9.28-24.31c5.06,0,50.04,.07,56.47,.07,1.32,5.66,5.37,24.24,5.37,24.24h40.92l-35.69-161.67m-54.37,104.27c3.65-9.32,17.57-45.22,17.57-45.22-.26,.43,3.62-9.37,5.85-15.44l2.98,13.95s8.44,38.62,10.21,46.71h-36.6Z"/><path class="cls-18" d="M194.35,69.19l-43.17,110.32-4.6-22.42c-8.04-25.84-33.08-53.84-61.07-67.86l39.47,141.48,46.65-.05L241.06,69.19h-46.71"/><path class="cls-17" d="M111.13,69.09H40.03l-.56,3.37c55.32,13.39,91.92,45.75,107.11,84.63l-15.46-74.34c-2.67-10.24-10.41-13.3-19.99-13.66"/></g></g><g id="Mastercard"><g><g><path class="cls-23" d="M901.56,263.98c-1.06-1.06-2.32-1.89-3.77-2.48-1.46-.59-3.05-.88-4.78-.88-.92,0-1.87,.08-2.86,.24-.99,.16-1.95,.44-2.9,.84-.95,.4-1.85,.95-2.7,1.66-.86,.71-1.6,1.59-2.23,2.67-1.02-1.68-2.4-3-4.14-3.96-1.74-.96-3.73-1.44-5.97-1.44-.75,0-1.53,.07-2.34,.21-.8,.14-1.6,.37-2.4,.71-.79,.34-1.55,.79-2.28,1.37-.72,.58-1.38,1.31-1.97,2.19v-3.69h-6.35v30.24h6.41v-16.76c0-1.28,.2-2.42,.61-3.42,.41-1,.95-1.84,1.63-2.51,.68-.67,1.48-1.18,2.4-1.53,.92-.35,1.89-.52,2.93-.52,2.16,0,3.83,.68,5.02,2.05,1.19,1.37,1.79,3.32,1.79,5.87v16.82h6.41v-16.76c0-1.28,.2-2.42,.61-3.42,.41-1,.95-1.84,1.63-2.51,.68-.67,1.48-1.18,2.4-1.53,.92-.35,1.89-.52,2.93-.52,2.16,0,3.83,.68,5.02,2.05,1.19,1.37,1.79,3.32,1.79,5.87v16.82h6.41v-19c0-1.77-.29-3.39-.87-4.86-.58-1.47-1.4-2.74-2.46-3.8Z"/><path class="cls-23" d="M935.39,265.07c-1.05-1.35-2.36-2.42-3.91-3.24-1.56-.81-3.42-1.22-5.59-1.22s-4.1,.39-5.93,1.18c-1.83,.79-3.43,1.89-4.8,3.3-1.37,1.41-2.44,3.09-3.22,5.03-.78,1.95-1.17,4.08-1.17,6.39s.39,4.45,1.17,6.39c.78,1.95,1.85,3.62,3.22,5.03,1.37,1.41,2.97,2.51,4.8,3.3,1.83,.79,3.81,1.18,5.93,1.18s4.03-.4,5.59-1.2c1.56-.8,2.86-1.87,3.91-3.22v3.63h6.6v-30.24h-6.6v3.66Zm-.25,15.31c-.44,1.18-1.06,2.2-1.86,3.06-.8,.86-1.76,1.54-2.87,2.04-1.12,.49-2.36,.74-3.72,.74s-2.71-.26-3.83-.77c-1.13-.52-2.08-1.21-2.86-2.08-.78-.87-1.38-1.9-1.8-3.08-.42-1.18-.63-2.43-.63-3.76s.21-2.58,.63-3.76c.42-1.18,1.02-2.2,1.8-3.08,.78-.87,1.73-1.57,2.86-2.08,1.13-.52,2.4-.77,3.83-.77s2.61,.25,3.72,.74c1.12,.49,2.07,1.17,2.87,2.04,.8,.86,1.42,1.88,1.86,3.06,.44,1.18,.66,2.46,.66,3.85s-.22,2.67-.66,3.85Z"/><path class="cls-23" d="M972.3,276.48c-1.85-1.44-4.43-2.4-7.73-2.89l-3.12-.47c-.69-.11-1.35-.23-1.96-.36-.61-.14-1.14-.32-1.58-.55-.44-.23-.79-.53-1.06-.88-.26-.36-.39-.8-.39-1.33,0-1.07,.5-1.94,1.5-2.6,1-.66,2.4-.99,4.21-.99,.95,0,1.88,.08,2.79,.25,.92,.17,1.78,.38,2.6,.63,.82,.25,1.57,.53,2.24,.84,.67,.31,1.24,.59,1.7,.87l2.84-5.14c-1.58-1.01-3.42-1.79-5.52-2.35-2.1-.56-4.34-.84-6.72-.84-1.94,0-3.67,.23-5.21,.68-1.54,.45-2.85,1.09-3.93,1.93-1.08,.83-1.92,1.85-2.49,3.05-.58,1.2-.87,2.55-.87,4.04,0,2.44,.87,4.41,2.6,5.92,1.74,1.5,4.29,2.49,7.65,2.95l3.16,.41c1.81,.25,3.14,.66,3.98,1.21,.84,.56,1.26,1.27,1.26,2.13,0,1.14-.58,2.04-1.74,2.7-1.16,.66-2.87,.99-5.14,.99-1.24,0-2.35-.08-3.33-.25-.98-.17-1.87-.39-2.68-.68-.81-.28-1.54-.61-2.18-.98-.64-.37-1.24-.76-1.78-1.18l-3.06,4.95c1.09,.82,2.24,1.48,3.44,1.99,1.2,.5,2.38,.9,3.53,1.18,1.16,.28,2.25,.47,3.28,.57,1.03,.09,1.94,.14,2.71,.14,2.17,0,4.11-.24,5.82-.73,1.71-.48,3.16-1.16,4.32-2.04,1.17-.87,2.06-1.91,2.68-3.12,.62-1.21,.93-2.54,.93-3.99,0-2.59-.93-4.6-2.78-6.04Z"/><path class="cls-23" d="M1034.07,265.02c-1.25-1.4-2.76-2.48-4.51-3.25-1.76-.77-3.69-1.15-5.79-1.15-2.23,0-4.27,.38-6.11,1.15-1.84,.77-3.42,1.85-4.75,3.25-1.33,1.4-2.36,3.08-3.09,5.03-.74,1.96-1.1,4.11-1.1,6.47s.38,4.58,1.14,6.53c.76,1.96,1.82,3.63,3.19,5.02,1.37,1.39,3,2.46,4.89,3.22,1.89,.76,3.98,1.14,6.25,1.14s4.48-.32,6.55-.95c2.07-.63,4.03-1.74,5.89-3.31l-3.28-4.7c-1.26,1.01-2.66,1.79-4.18,2.35-1.53,.56-3.05,.84-4.56,.84-1.07,0-2.1-.15-3.09-.44-.99-.29-1.88-.75-2.68-1.37-.8-.62-1.48-1.42-2.05-2.38-.57-.97-.96-2.14-1.17-3.5h22.35c.04-.38,.07-.78,.1-1.2,.02-.42,.03-.84,.03-1.26,0-2.36-.35-4.51-1.06-6.45-.7-1.95-1.68-3.62-2.94-5.02Zm-18.45,8.92c.17-1.09,.46-2.1,.88-3.01,.42-.92,.96-1.7,1.63-2.37,.66-.66,1.45-1.17,2.37-1.53,.92-.36,1.96-.54,3.14-.54,2.1,0,3.82,.65,5.14,1.96,1.33,1.3,2.17,3.14,2.52,5.49h-15.69Z"/><path class="cls-23" d="M1121.71,265.07c-1.05-1.35-2.36-2.42-3.91-3.24-1.56-.81-3.42-1.22-5.59-1.22s-4.1,.39-5.93,1.18c-1.83,.79-3.43,1.89-4.8,3.3-1.37,1.41-2.44,3.09-3.22,5.03-.78,1.95-1.17,4.08-1.17,6.39s.39,4.45,1.17,6.39c.78,1.95,1.85,3.62,3.22,5.03,1.37,1.41,2.97,2.51,4.8,3.3,1.83,.79,3.81,1.18,5.93,1.18s4.03-.4,5.59-1.2c1.56-.8,2.86-1.87,3.91-3.22v3.63h6.6v-30.24h-6.6v3.66Zm-.25,15.31c-.44,1.18-1.06,2.2-1.86,3.06-.8,.86-1.76,1.54-2.87,2.04-1.11,.49-2.36,.74-3.72,.74s-2.71-.26-3.83-.77c-1.13-.52-2.08-1.21-2.86-2.08-.78-.87-1.38-1.9-1.8-3.08-.42-1.18-.63-2.43-.63-3.76s.21-2.58,.63-3.76c.42-1.18,1.02-2.2,1.8-3.08,.78-.87,1.73-1.57,2.86-2.08,1.13-.52,2.4-.77,3.83-.77s2.61,.25,3.72,.74c1.12,.49,2.07,1.17,2.87,2.04,.8,.86,1.42,1.88,1.86,3.06,.44,1.18,.66,2.46,.66,3.85s-.22,2.67-.66,3.85Z"/><path class="cls-23" d="M1000.59,285.61c-1.06,.4-2.11,.6-3.14,.6-.67,0-1.3-.1-1.88-.32-.58-.21-1.08-.54-1.51-.99-.43-.45-.77-1.04-1.03-1.75s-.38-1.58-.38-2.59v-13.16h10.59v-6h-10.59v-9.15h-6.63v9.15h-6.03v6h6.03v13.29c0,4.02,.95,6.98,2.86,8.88,1.9,1.9,4.57,2.86,8,2.86,1.91,0,3.63-.29,5.16-.88,1.01-.39,1.94-.83,2.82-1.33l-2.26-5.52c-.64,.34-1.31,.65-2.02,.91Z"/><path class="cls-23" d="M1060.14,260.62c-1.85,0-3.52,.34-5.02,1.01-1.49,.67-2.75,2.29-3.76,3.75v-3.97h-5.99v30.24h6.05v-16.63c0-1.28,.18-2.43,.54-3.44,.36-1.01,.85-1.86,1.48-2.56,.63-.69,1.39-1.22,2.27-1.58,.88-.36,1.85-.54,2.9-.54,.8,0,1.66,.09,2.59,.28,.47,.1,.91,.22,1.33,.36l1.95-6.31c-.53-.17-1.07-.31-1.62-.4-.81-.14-1.72-.21-2.73-.21Z"/><path class="cls-23" d="M1151.84,260.62c-1.85,0-3.52,.34-5.02,1.01-1.49,.67-2.75,2.29-3.76,3.75v-3.97h-5.99v30.24h6.05v-16.63c0-1.28,.18-2.43,.54-3.44,.36-1.01,.85-1.86,1.48-2.56,.63-.69,1.39-1.22,2.27-1.58,.88-.36,1.85-.54,2.9-.54,.8,0,1.66,.09,2.59,.28,.47,.1,.91,.22,1.33,.36l1.95-6.31c-.53-.17-1.07-.31-1.62-.4-.81-.14-1.72-.21-2.73-.21Z"/><path class="cls-23" d="M1182.65,249.12v15.95c-1.05-1.35-2.36-2.42-3.91-3.24-1.56-.81-3.42-1.22-5.59-1.22s-4.1,.39-5.93,1.18c-1.83,.79-3.43,1.89-4.8,3.3-1.37,1.41-2.44,3.09-3.22,5.03-.78,1.95-1.17,4.08-1.17,6.39s.39,4.45,1.17,6.39c.78,1.95,1.85,3.62,3.22,5.03,1.37,1.41,2.97,2.51,4.8,3.3,1.83,.79,3.81,1.18,5.93,1.18s4.03-.4,5.59-1.2c1.56-.8,2.86-1.87,3.91-3.22v3.63h6.6v-42.53h-6.6Zm-.25,31.26c-.44,1.18-1.06,2.2-1.86,3.06-.8,.86-1.76,1.54-2.87,2.04-1.12,.49-2.36,.74-3.72,.74s-2.71-.26-3.83-.77c-1.13-.52-2.08-1.21-2.86-2.08-.78-.87-1.38-1.9-1.8-3.08-.42-1.18-.63-2.43-.63-3.76s.21-2.58,.63-3.76c.42-1.18,1.02-2.2,1.8-3.08,.78-.87,1.73-1.57,2.86-2.08,1.13-.52,2.4-.77,3.83-.77s2.61,.25,3.72,.74c1.11,.49,2.07,1.17,2.87,2.04,.8,.86,1.42,1.88,1.86,3.06,.44,1.18,.66,2.46,.66,3.85s-.22,2.67-.66,3.85Z"/><path class="cls-23" d="M1075.93,269.53c.84-.85,1.84-1.52,3-1.99,1.16-.47,2.41-.71,3.76-.71h0c1.48,0,2.86,.24,4.13,.71,1.23,.46,2.3,1.1,3.2,1.91l3.18-5.28c-1.19-.95-2.53-1.73-4.02-2.34-1.99-.81-4.15-1.22-6.49-1.22s-4.5,.41-6.49,1.22c-1.99,.81-3.7,1.93-5.14,3.35-1.44,1.42-2.57,3.1-3.39,5.03-.82,1.94-1.23,4.04-1.23,6.31s.41,4.38,1.23,6.31c.82,1.94,1.95,3.61,3.39,5.03,1.44,1.42,3.16,2.54,5.14,3.35s4.15,1.22,6.49,1.22,4.5-.41,6.49-1.22c1.49-.61,2.83-1.39,4.02-2.34l-3.18-5.28c-.91,.81-1.97,1.45-3.2,1.91-1.27,.47-2.65,.71-4.13,.71h0c-1.35,0-2.6-.24-3.76-.71-1.16-.47-2.16-1.14-3-1.99-.84-.85-1.5-1.87-1.99-3.06-.48-1.19-.73-2.5-.73-3.93s.24-2.74,.73-3.93c.48-1.19,1.15-2.21,1.99-3.06Z"/></g><path class="cls-23" d="M1203.15,287.21c.44,0,.85,.08,1.24,.24,.38,.16,.72,.38,1.01,.66,.29,.28,.51,.61,.68,.98,.16,.37,.25,.77,.25,1.2s-.08,.82-.25,1.19c-.16,.38-.39,.7-.68,.99-.29,.28-.62,.5-1.01,.67-.38,.16-.8,.24-1.24,.24s-.87-.08-1.26-.24c-.39-.16-.73-.38-1.01-.67-.29-.28-.51-.61-.67-.99-.16-.38-.24-.77-.24-1.19s.08-.82,.24-1.2c.16-.37,.39-.7,.67-.98,.29-.28,.62-.5,1.01-.66,.39-.16,.81-.24,1.26-.24Zm0,5.31c.31,0,.59-.06,.87-.18s.5-.28,.7-.48c.2-.2,.36-.44,.47-.71,.11-.27,.17-.56,.17-.87s-.06-.6-.17-.87c-.11-.27-.27-.51-.47-.71-.2-.2-.43-.36-.7-.47-.27-.12-.56-.18-.87-.18s-.61,.06-.88,.18c-.27,.12-.51,.27-.71,.47-.2,.2-.36,.43-.47,.71-.11,.27-.17,.56-.17,.87s.06,.6,.17,.87c.11,.27,.27,.51,.47,.71,.2,.2,.44,.36,.71,.48,.27,.12,.57,.18,.88,.18Zm.18-3.6c.38,0,.66,.08,.85,.25,.19,.17,.29,.39,.29,.67,0,.22-.07,.4-.21,.55-.14,.14-.34,.24-.61,.28l.85,.98h-.92l-.76-.95h-.09v.95h-.77v-2.73h1.36Zm-.59,.67v.5h.58c.12,0,.21-.02,.27-.05,.06-.04,.1-.1,.1-.19,0-.09-.03-.15-.1-.19-.06-.04-.16-.06-.27-.06h-.58Z"/><g><path class="cls-20" d="M979.58,120.07c0-36.22,16.92-68.48,43.27-89.35-19.43-15.39-43.97-24.61-70.68-24.61-62.93,0-113.95,51.02-113.95,113.95s51.02,113.95,113.95,113.95c26.71,0,51.25-9.21,70.68-24.61-26.35-20.87-43.27-53.12-43.27-89.35Z"/><path class="cls-22" d="M979.58,120.07c0,36.22,16.92,68.48,43.27,89.35,26.35-20.87,43.27-53.12,43.27-89.35s-16.92-68.48-43.27-89.35c-26.35,20.87-43.27,53.12-43.27,89.35Z"/><path class="cls-16" d="M1199.76,181.71v-3.34h-1.35v-.92h3.69v.92h-1.35v3.34h-1Zm7.14,0v-2.95l-.96,2.54h-1.06l-.96-2.54v2.94h-1v-4.25h1.43l1.06,2.72,1.05-2.72h1.43v4.25h-1Z"/><path class="cls-16" d="M1093.54,6.12c-26.71,0-51.25,9.21-70.68,24.61,26.35,20.87,43.27,53.12,43.27,89.35s-16.92,68.48-43.27,89.35c19.43,15.39,43.97,24.61,70.68,24.61,62.93,0,113.95-51.02,113.95-113.95s-51.02-113.95-113.95-113.95Z"/></g></g></g><g id="Maestro"><g><path class="cls-10" d="M1671.14,243.38c25.32-23.11,41.22-56.5,41.22-93.63s-15.9-70.52-41.22-93.63c-22.25-20.32-51.78-32.7-84.18-32.7-69.25,0-125.4,56.56-125.4,126.33s56.14,126.33,125.4,126.33c32.4,0,61.92-12.38,84.18-32.69h0Z"/><path class="cls-8" d="M1755.32,23.42c-32.4,0-61.92,12.38-84.18,32.7-4.54,4.14-8.77,8.61-12.66,13.37h25.31c3.46,4.24,6.66,8.7,9.56,13.38h-44.44c-2.66,4.3-5.08,8.76-7.23,13.38h58.89c2.01,4.33,3.8,8.79,5.32,13.37h-69.52c-1.45,4.36-2.67,8.82-3.64,13.38h76.8c1.84,8.63,2.82,17.57,2.82,26.75,0,14.03-2.27,27.52-6.46,40.13h-69.52c1.52,4.58,3.3,9.05,5.31,13.38h58.89c-2.15,4.62-4.56,9.08-7.22,13.38h-44.44c2.9,4.67,6.1,9.14,9.56,13.37h25.32c-3.89,4.76-8.12,9.24-12.65,13.38,22.25,20.32,51.78,32.69,84.18,32.69,69.25,0,125.4-56.56,125.4-126.33s-56.14-126.33-125.4-126.33h0Z"/><path class="cls-8" d="M1864.02,220.17c0-2.25,1.81-4.08,4.05-4.08s4.05,1.83,4.05,4.08-1.81,4.08-4.05,4.08-4.05-1.83-4.05-4.08h0Zm4.05,3.1c1.7,0,3.08-1.39,3.08-3.1s-1.38-3.1-3.08-3.1-3.08,1.39-3.08,3.1,1.38,3.1,3.08,3.1h0Zm-.55-1.31h-.83v-3.59h1.5c.31,0,.63,0,.91,.18,.29,.2,.45,.54,.45,.9,0,.4-.24,.78-.62,.93l.66,1.58h-.92l-.54-1.42h-.61v-.61h.46c.17,0,.36,.01,.5-.07,.14-.09,.21-.25,.21-.41,0-.14-.08-.3-.2-.37-.14-.09-.38-.07-.53-.07h-.44v2.94h0Z"/><path class="cls-3" d="M1837.5,177.13c0-2.25,1.81-4.08,4.05-4.08s4.05,1.83,4.05,4.08-1.81,4.08-4.05,4.08-4.05-1.83-4.05-4.08h0Zm4.05,3.1c1.7,0,3.08-1.39,3.08-3.1s-1.38-3.1-3.08-3.1-3.08,1.39-3.08,3.1,1.38,3.1,3.08,3.1h0Zm-.55-1.31h-.83v-3.58h1.5c.31,0,.63,0,.91,.18,.29,.2,.45,.54,.45,.89,0,.4-.23,.78-.62,.92l.66,1.58h-.92l-.54-1.41h-.61v-.62h.46c.17,0,.36,.01,.5-.07,.14-.09,.21-.25,.21-.41,0-.14-.09-.3-.2-.37-.14-.09-.38-.07-.53-.07h-.44v2.94h0Z"/><polygon class="cls-3" points="1571.3 181.21 1555.69 181.21 1564.97 131.97 1543.61 181.21 1529.38 181.21 1526.78 132.26 1517.47 181.21 1503.31 181.21 1515.41 117.16 1539.77 117.16 1541.05 156.81 1558.22 117.16 1583.6 117.16 1571.3 181.21 1571.3 181.21"/><path class="cls-3" d="M1745.71,180.57c-4.27,1.18-7.61,1.69-11.21,1.69-7.99,0-12.34-4.03-12.34-11.44,0-1.46,.16-3.03,.46-4.67l.95-5.1,.73-4.12,7.23-39.77h15.52l-2.25,11.96h7.96l-2.14,12.66h-8l-4.11,21.73c-.18,.96-.27,1.67-.27,2.16,0,2.69,1.61,3.86,5.33,3.86,1.78,0,3.15-.16,4.21-.49l-2.07,11.52h0Z"/><path class="cls-3" d="M1791.3,129.55c-1.31-.52-1.61-.52-1.77-.56-.83-.18-1.27-.29-1.34-.3-.47-.09-1-.13-1.57-.13-5.13,0-8.82,2.3-13.59,8.46l1.38-7.89h-14.13l-9.51,52.09h15.62c5.59-31.86,7.98-37.44,15.47-37.44,.56,0,1.22,.05,1.97,.13l1.83,.38,5.66-14.73h0Z"/><path class="cls-3" d="M1683.85,145.58c0,6.58,3.68,11.11,12.02,14.52,6.39,2.61,7.38,3.38,7.38,5.75,0,3.24-2.82,4.71-9.06,4.71-4.72,0-9.1-.64-14.15-2.06l-2.16,12.02,.7,.12,2.89,.53c.93,.16,2.3,.32,4.12,.46,3.75,.29,6.66,.43,8.71,.43,16.66,0,24.36-5.5,24.36-17.38,0-7.15-3.22-11.34-11.13-14.5-6.62-2.63-7.38-3.22-7.38-5.65,0-2.81,2.63-4.25,7.73-4.25,3.1,0,7.33,.29,11.35,.78l2.25-12.06c-4.09-.56-10.29-1.02-13.89-1.02-17.66,0-23.78,8-23.72,17.61h0Z"/><path class="cls-3" d="M1622.03,181.21h-12.97l.3-5.4c-3.95,4.27-9.21,6.3-16.37,6.3-8.46,0-14.26-5.8-14.26-14.23,0-12.69,10.08-20.08,27.41-20.08,1.78,0,4.03,.14,6.36,.4,.48-1.71,.62-2.45,.62-3.38,0-3.45-2.72-4.74-10.01-4.74-4.46,0-9.49,.56-12.97,1.45l-2.16,.55-1.4,.34,2.16-11.71c7.78-2.01,12.92-2.77,18.69-2.77,13.41,0,20.5,5.29,20.5,15.28,0,2.57-.24,4.52-1.27,10.32l-3.26,18.48-.55,3.32-.4,2.65-.27,1.81-.15,1.41h0Zm-11.39-23.21c-1.64-.17-2.36-.22-3.49-.22-8.85,0-13.33,2.67-13.33,7.93,0,3.24,2.19,5.31,5.6,5.31,6.36,0,10.94-5.32,11.21-13.02h0Z"/><path class="cls-3" d="M1673.24,180.08c-5.35,1.43-10.53,2.12-15.99,2.11-17.45-.01-26.54-8.01-26.54-23.33,0-17.88,11.57-31.05,27.28-31.05,12.85,0,21.05,7.37,21.05,18.93,0,3.84-.56,7.58-1.92,12.86h-31.03c-.12,.8-.15,1.16-.15,1.64,0,6.04,4.63,9.12,13.69,9.12,5.57,0,10.61-1.02,16.21-3.29l-2.59,13.01h0Zm-8.31-30.99c.09-1.09,.13-1.97,.13-2.66,0-4.23-2.74-6.71-7.38-6.71-4.96,0-8.52,3.33-9.96,9.34l17.21,.03h0Z"/><path class="cls-3" d="M1839.81,157.59c-2.33,17.33-14.35,25.01-30.31,25.01-17.66,0-24.79-10.79-24.79-24.01,0-18.46,12.08-30.97,30.73-30.97,16.19,0,24.79,10.29,24.79,23.51,0,3.22,0,3.43-.42,6.46h0Zm-16.07-6.66c0-5.45-2.2-10.59-8.6-10.59-7.96,0-12.9,9.48-12.9,17.86,0,7.06,3.38,11.81,8.96,11.7,3.38,0,10.6-4.64,12.02-12.75,.33-1.89,.51-3.97,.51-6.22h0Z"/></g></g><g id="elo"><g><g><path class="cls-9" d="M3013.2,.28c82.55,0,149.47,66.92,149.47,149.47s-66.92,149.47-149.47,149.47-149.47-66.92-149.47-149.47S2930.66,.28,3013.2,.28h0Z"/><path class="cls-3" d="M2948.98,109.69c21.65,0,39.8,14.98,44.65,35.14l-18.51,8.1v-.04s-18.94,8.32-18.94,8.32l-45.43,19.87c-4.86-7.29-7.7-16.04-7.7-25.45,0-25.37,20.56-45.93,45.93-45.93h0Zm19.72,28.56l-45.88,19.77c-.07-.79-.11-1.59-.11-2.4,0-14.51,11.77-26.28,26.28-26.28,7.85,0,14.9,3.45,19.72,8.91h0Z"/><path class="cls-3" d="M2981.08,188.48c-16.45,15.61-38.2,17.14-57.32,5.54l10.8-16.42c10.88,6.5,21.81,5.45,32.78-3.17l13.73,14.06h0Z"/><path class="cls-3" d="M2999.78,177.11l-.12-86.86h16.46v84.52c0,.81,.1,1.53,1.16,1.94l14.32,5.57-6.45,16.77-16.77-7.1c-6.36-2.69-8.59-6.59-8.6-14.84h0Z"/></g><g><path class="cls-4" d="M3061.74,175.65c-6.17-4.8-10.14-12.28-10.14-20.7,0-7.48,3.14-14.23,8.17-19.01l-10.63-17.23c-10.68,8.47-17.55,21.54-17.55,36.23,0,15.83,7.97,29.8,20.1,38.13l10.04-17.43Z"/><path class="cls-7" d="M3068.95,130.28c2.77-1,5.76-1.54,8.87-1.54,11.22,0,20.8,7.06,24.53,16.97l20.37-1.7c-4.92-20.24-23.15-35.27-44.9-35.27-6.15,0-12.01,1.21-17.37,3.39l8.5,18.16Z"/><path class="cls-1" d="M3104,156.22c-.66,13.89-12.13,24.94-26.18,24.94-2.2,0-4.34-.28-6.38-.79l-7.99,18.5c4.53,1.48,9.35,2.29,14.37,2.29,24.89,0,45.17-19.67,46.17-44.32l-19.99-.63Z"/></g></g></g><g id="cielo"><g><path class="cls-21" d="M1742.39,488.31c-28.08,0-54.16,8.52-75.83,23.09-1.54,1.04-12.2,8.66-12.66,9.02-17.69,13.31-29.57,15.67-45.84,11.53-.98-.24-5.65-1.86-7.12-2.41-11.12-4.2-23.17-6.51-35.76-6.51-56,0-101.39,45.4-101.39,101.39s45.39,101.41,101.39,101.41c11.21,0,22-1.84,32.08-5.21,24.27-7.26,37.44-5.28,52.6,5.47,3.04,2.16,10.39,6.85,11.89,7.96,22.57,16.64,50.46,26.5,80.66,26.5,75.18,0,136.12-60.94,136.12-136.13s-60.93-136.11-136.12-136.11Z"/><g><g><path class="cls-12" d="M1693.28,645.46c-4.45,4.36-10.55,7.02-17.27,6.92-4.61-.06-8.88-1.44-12.51-3.74l-9.02,14.32c6.18,3.89,13.46,6.21,21.27,6.32,11.41,.18,21.8-4.31,29.37-11.7l-11.84-12.12Z"/><path class="cls-12" d="M1677.02,587.06c-22.7-.34-41.39,17.78-41.73,40.48-.13,8.5,2.33,16.44,6.65,23.07l74.49-31.82c-4.2-17.94-20.14-31.42-39.41-31.73Zm-24.68,43.67c-.1-.97-.17-1.94-.15-2.94,.2-13.37,11.21-24.04,24.58-23.83,7.28,.11,13.74,3.44,18.1,8.59l-42.53,18.18Z"/></g><path class="cls-12" d="M1739.77,568.54v79.39l13.76,5.71-6.49,15.65-13.62-5.66c-3.09-1.31-5.15-3.35-6.71-5.64h0c-1.52-2.32-2.65-5.53-2.65-9.84v-79.6h15.71Z"/><path class="cls-12" d="M1619.91,568.54v79.39l13.76,5.71-6.49,15.65-13.62-5.66c-3.08-1.31-5.15-3.35-6.71-5.64h0c-1.52-2.32-2.64-5.53-2.64-9.84v-79.6h15.71Z"/><path class="cls-13" d="M1807.55,606.34c12.06,5.8,17.13,20.26,11.34,32.32h0l15.23,7.32h0c9.84-20.46,1.23-45.02-19.25-54.86-15.55-7.48-33.47-4.29-45.49,6.66l11.39,12.51c7.08-6.45,17.63-8.35,26.78-3.94Z"/><path class="cls-12" d="M1786.57,649.99c-12.04-5.8-17.12-20.26-11.34-32.31h0s-15.23-7.33-15.23-7.33h0c-9.83,20.47-1.22,45.03,19.24,54.87,15.56,7.48,33.47,4.28,45.5-6.67l-11.39-12.5c-7.09,6.44-17.63,8.33-26.79,3.93Z"/><path class="cls-12" d="M1588.69,651.13v-22.98c0-18.34-12.02-33.84-28.61-39.11-3.92-1.24-8.09-1.93-12.43-1.94-4.25,0-8.35,.66-12.21,1.85-6.42,2-12.17,5.54-16.81,10.18-7.43,7.43-12.02,17.69-12.03,29.02,0,22.67,18.38,41.03,41.04,41.04h.02c6.56,0,12.78-1.56,18.3-4.32l-6.64-15.48c-3.47,1.91-7.41,3-11.67,3-13.39-.02-24.22-10.86-24.25-24.24h0c0-4.11,1.04-7.98,2.85-11.37,3.25-6.1,9.03-10.62,15.93-12.23,1.76-.41,3.58-.65,5.46-.65,3.59,0,6.98,.81,10.03,2.2,8.37,3.83,14.2,12.24,14.22,22.05h0v22.79c0,4.3,1.13,7.52,2.65,9.84,1.56,2.29,3.62,4.33,6.71,5.65l7.69,3.05,6.5-15.65-6.77-2.7Z"/></g></g></g><g id="American_Express"><g><polygon class="cls-11" points="875.82 447.17 1170.29 447.17 1170.29 606.13 1170.29 649.18 1170.29 741.64 875.82 741.64 875.82 591.79 875.82 571.29 875.82 447.17 875.82 447.17"/><path class="cls-3" d="M932.99,652.36v-46.23h48.95l5.25,6.85,5.43-6.85h177.68v43.04s-4.65,3.14-10.02,3.19h-98.38l-5.92-7.29v7.29h-19.4v-12.44s-2.65,1.74-8.38,1.74h-6.6v10.7h-29.38l-5.24-6.99-5.33,6.99h-48.64Z"/><path class="cls-3" d="M875.82,571.29l11.04-25.73h19.09l6.26,14.42v-14.42h23.73l3.73,10.42,3.62-10.42h106.53v5.24s5.6-5.24,14.8-5.24l34.56,.12,6.16,14.23v-14.35h19.86l5.47,8.17v-8.17h20.04v46.23h-20.04l-5.24-8.2v8.2h-29.18l-2.93-7.29h-7.84l-2.89,7.29h-19.79c-7.92,0-12.98-5.13-12.98-5.13v5.13h-29.83l-5.92-7.29v7.29h-110.94l-2.93-7.29h-7.82l-2.91,7.29h-13.64v-20.5h0Z"/><path class="cls-11" d="M890.77,551.25l-14.89,34.62h9.69l2.75-6.93h15.97l2.73,6.93h9.91l-14.87-34.62h-11.29Zm5.51,8.06l4.87,12.11h-9.75l4.88-12.11h0Z"/><polygon class="cls-11" points="917.96 585.86 917.96 551.25 931.73 551.3 939.74 573.62 947.56 551.25 961.23 551.25 961.23 585.86 952.57 585.86 952.57 560.36 943.4 585.86 935.81 585.86 926.61 560.36 926.61 585.86 917.96 585.86 917.96 585.86"/><polygon class="cls-11" points="967.15 585.86 967.15 551.25 995.39 551.25 995.39 558.99 975.89 558.99 975.89 564.91 994.93 564.91 994.93 572.2 975.89 572.2 975.89 578.35 995.39 578.35 995.39 585.86 967.15 585.86 967.15 585.86"/><path class="cls-11" d="M1000.4,551.25v34.62h8.65v-12.3h3.64l10.38,12.3h10.58l-11.39-12.75c4.67-.39,9.49-4.41,9.49-10.63,0-7.28-5.72-11.23-12.1-11.23h-19.26Zm8.65,7.74h9.89c2.37,0,4.1,1.86,4.1,3.64,0,2.3-2.24,3.64-3.97,3.64h-10.02v-7.29h0Z"/><polygon class="cls-11" points="1044.12 585.86 1035.29 585.86 1035.29 551.25 1044.12 551.25 1044.12 585.86 1044.12 585.86"/><path class="cls-11" d="M1065.08,585.86h-1.91c-9.23,0-14.83-7.27-14.83-17.17s5.54-17.45,17.19-17.45h9.57v8.2h-9.91c-4.73,0-8.08,3.69-8.08,9.34,0,6.7,3.83,9.52,9.34,9.52h2.28l-3.64,7.56h0Z"/><path class="cls-11" d="M1083.91,551.25l-14.89,34.62h9.69l2.75-6.93h15.97l2.73,6.93h9.91l-14.87-34.62h-11.29Zm5.51,8.06l4.87,12.11h-9.75l4.88-12.11h0Z"/><polygon class="cls-11" points="1111.08 585.86 1111.08 551.25 1122.08 551.25 1136.13 573 1136.13 551.25 1144.79 551.25 1144.79 585.86 1134.14 585.86 1119.73 563.55 1119.73 585.86 1111.08 585.86 1111.08 585.86"/><polygon class="cls-11" points="938.91 646.44 938.91 611.83 967.15 611.83 967.15 619.57 947.65 619.57 947.65 625.49 966.69 625.49 966.69 632.78 947.65 632.78 947.65 638.93 967.15 638.93 967.15 646.44 938.91 646.44 938.91 646.44"/><polygon class="cls-11" points="1077.28 646.44 1077.28 611.83 1105.52 611.83 1105.52 619.57 1086.03 619.57 1086.03 625.49 1104.98 625.49 1104.98 632.78 1086.03 632.78 1086.03 638.93 1105.52 638.93 1105.52 646.44 1077.28 646.44 1077.28 646.44"/><polygon class="cls-11" points="968.24 646.44 981.99 629.35 967.92 611.83 978.82 611.83 987.2 622.66 995.62 611.83 1006.09 611.83 992.2 629.14 1005.98 646.44 995.07 646.44 986.93 635.78 978.99 646.44 968.24 646.44 968.24 646.44"/><path class="cls-11" d="M1007,611.83v34.62h8.88v-10.93h9.11c7.71,0,13.55-4.09,13.55-12.04,0-6.59-4.58-11.64-12.43-11.64h-19.12Zm8.88,7.83h9.59c2.49,0,4.27,1.53,4.27,3.99,0,2.31-1.77,3.99-4.3,3.99h-9.56v-7.97h0Z"/><path class="cls-11" d="M1042.3,611.83v34.62h8.65v-12.3h3.64l10.38,12.3h10.58l-11.39-12.75c4.67-.39,9.49-4.41,9.49-10.63,0-7.28-5.72-11.23-12.1-11.23h-19.26Zm8.65,7.74h9.89c2.37,0,4.1,1.86,4.1,3.64,0,2.3-2.24,3.64-3.97,3.64h-10.02v-7.29h0Z"/><path class="cls-11" d="M1109.53,646.44v-7.52h17.32c2.56,0,3.67-1.38,3.67-2.9s-1.11-2.93-3.67-2.93h-7.83c-6.8,0-10.59-4.14-10.59-10.37,0-5.55,3.47-10.9,13.58-10.9h16.85l-3.64,7.79h-14.58c-2.79,0-3.64,1.46-3.64,2.86s1.06,3.02,3.19,3.02h8.2c7.58,0,10.87,4.3,10.87,9.94,0,6.06-3.67,11.02-11.29,11.02h-18.44Z"/><path class="cls-11" d="M1141.29,646.44v-7.52h16.59c2.56,0,3.67-1.38,3.67-2.9s-1.11-2.93-3.67-2.93h-7.09c-6.8,0-10.59-4.14-10.59-10.37,0-5.55,3.47-10.9,13.58-10.9h16.52l-3.64,7.79h-14.24c-2.79,0-3.64,1.46-3.64,2.86s1.06,3.02,3.19,3.02h7.47c7.58,0,10.87,4.3,10.87,9.94,0,6.06-3.67,11.02-11.29,11.02h-17.71Z"/></g></g><g id="Banco_do_Brasil"><g><polygon class="cls-6" points="2863.74 496.44 3162.67 496.44 3162.67 795.37 2863.74 795.37 2863.74 496.44 2863.74 496.44"/><polygon class="cls-2" points="3013.23 522.68 2890.95 604.65 2941.84 637.7 3002.66 596.71 2978.54 580.87 3011.58 558.73 3083.27 606.31 3083.27 606.31 2965.65 685.28 2991.09 702.13 3137.46 604.66 3137.13 604.33 3013.23 522.68 3013.23 522.68"/><polygon class="cls-2" points="3135.18 522.72 3084.29 556.42 3109.74 573.6 3135.18 556.42 3135.18 522.72 3135.18 522.72"/><polygon class="cls-2" points="2890.11 769.12 2940.99 735.42 2915.55 718.24 2890.11 735.42 2890.11 769.12 2890.11 769.12"/><polygon class="cls-2" points="3013.18 769.05 3135.46 687.09 3084.56 654.04 3023.75 695.02 3047.87 710.87 3014.83 733 2943.14 685.43 2943.14 685.43 3060.76 606.46 3035.32 589.61 2888.95 687.08 2889.28 687.41 3013.18 769.05 3013.18 769.05"/></g></g><g id="Hipercard"><g><path id="fundo" class="cls-5" d="M2241.34,30.95h-56.57c-25,1.18-45.43,11.25-51.33,32.01-3.08,10.83-4.77,22.72-7.17,33.94-12.23,57.07-23.07,115.72-34.77,171.65h440.45c34.05,0,57.43-7.2,63.75-34.22,2.94-12.55,5.75-26.77,8.56-40.57,10.95-53.78,21.9-107.55,33.12-162.82h-396.02Z"/><path id="hipercard" class="cls-3" d="M2236.93,115.39c2.37-1.63,5.41-9.05,1.93-12.14-1.1-.98-2.95-1.26-5.52-.83-2.39,.4-3.76,1.21-4.69,2.48-1.5,2.04-2.87,8.2-.55,10.49,2.26,2.23,7.33,1.04,8.83,0Zm-33.67-12.14c-1.7,11-3.6,21.78-5.52,32.56-12.29,.13-24.85,.61-36.7-.28,2.24-10.55,3.85-21.73,6.07-32.29h-13.25c-4.74,26.9-9.06,54.23-14.35,80.58h13.52c2.12-13.52,4.1-27.17,6.9-40.02,11.53-.28,25.35-.78,36.43,.28-2.28,13.35-5.05,26.23-7.18,39.74h13.52c4.34-27.3,8.92-54.37,14.35-80.58h-13.8Zm191.25,23.18c-10.52-4.25-18.79,2.93-22.63,9.66,.87-2.99,1.23-6.5,1.93-9.66h-10.49c-2.56,19.88-6.34,38.55-9.93,57.4h11.87c1.66-11.19,2.38-26.27,6.07-36.98,2.95-8.55,10.67-15.84,21.8-11.87,.16-3.16,1.06-5.56,1.38-8.56Zm6.62,43.88c-1.09-2.83-1.38-7.49-1.1-11.04,.61-7.97,3.52-17.68,8-22.08,6.19-6.07,18.4-5.06,28.15-1.66,.3-3.28,.96-6.21,1.38-9.38-15.98-2.61-31.15-.99-39.19,7.45-7.87,8.26-13.03,27.24-9.38,39.19,4.27,13.98,23.41,14.74,38.91,9.38,.69-2.81,1.05-5.94,1.66-8.83-8.47,4.4-24.66,6.69-28.43-3.04Zm133.29-43.6c-10.49-5.24-19.22,3.56-22.63,8.83,.97-2.71,1.03-6.33,1.93-9.11h-10.49c-2.83,19.71-6.24,38.84-10.21,57.4h12.14c.08-7.61,1.57-13.24,2.76-20.7,2.54-15.93,6.26-33.4,24.84-28.15,.62-2.7,.87-5.75,1.66-8.28Zm-309.64-.28c-.32,.05-.3,.44-.28,.83-2.62,19.55-6.15,38.19-9.93,56.57h11.87c2.85-19.69,6.12-38.96,10.21-57.4h-11.87Zm104.32-1.1c-8.58,.66-15.82,3.13-20.97,8.56-6.32,6.66-11.43,21.37-9.94,34.77,2.14,19.12,25.94,18.43,44.98,13.8,.32-3.35,1.14-6.22,1.66-9.38-7.84,2.94-21.46,7.03-29.53,1.93-6.09-3.85-6.13-13.6-4.14-22.08,12.8-.41,26.1-.33,38.91,0,.81-6.01,3.14-12.56,1.1-18.49-2.69-7.83-12.3-9.86-22.08-9.11Zm11.31,20.97h-27.87c.88-6.41,6.65-13.45,15.73-13.8,8.55-.33,14.67,3.14,12.14,13.8Zm-56.3-19.87c-10.04-3.77-22.28,.73-27.59,5.01,.02,.19-.13,.21-.28,.23,.09-.08,.19-.15,.28-.23,0-.02,0-.03,0-.05,.09-1.84,.74-3.13,.83-4.97h-10.21c-4.25,28.31-9.3,55.83-14.63,83.07h11.87c1.72-10.61,2.85-21.8,5.24-31.74,2.71,10.45,20.41,8.45,27.87,4.42,15.41-8.33,27.29-47.98,6.62-55.75Zm-9.38,46.64c-6.35,6.72-21.96,6.62-23.18-4.69-.53-4.92,1.3-10.08,2.21-15.18,.92-5.16,1.58-10.1,2.48-14.63,6.25-7.64,24.63-8.56,26.49,4.14,1.62,11.02-2.75,24.79-8,30.36Zm303.84-71.48c-1.02,8.92-2.38,17.49-4.14,25.66-29.11-9.21-46.96,12.2-46.64,38.64,.06,5.11,.94,10.18,4.14,13.8,5.51,6.23,21.29,7.72,29.25,2.48,1.54-1.01,3.12-2.86,4.14-4.14,.77-.96,1.99-3.49,2.21-2.76-.42,2.8-1.04,5.4-1.1,8.56h10.76c2.07-29.75,8.49-55.17,13.25-82.24h-11.87Zm-26.49,75.89c-7.99,.17-11.96-4.77-12.14-12.97-.32-14.36,5.98-30.31,18.77-31.74,5.95-.67,10.26,.72,14.63,2.21-4,16.13-2.56,42.1-21.25,42.5Zm-102.39-51.05c-.58,3.28-1.48,6.25-2.21,9.38,7-1.76,28.81-7.14,30.91,2.21,.7,3.11-.51,6.4-1.38,8.83-19.72-1.87-35.79,1.41-40.02,15.45-2.83,9.41,.32,18.67,6.35,21.25,11.61,4.98,25.74-.72,30.63-8.56-.51,2.71-.99,5.45-.83,8.83h10.21c.11-9.78,1.53-17.69,3.04-26.49,1.28-7.49,3.69-14.91,3.31-21.53-.88-15.15-25.97-9.79-40.02-9.38Zm19.32,46.36c-6.12,5.99-23.28,7.69-21.53-6.62,1.46-11.89,14.4-14.41,28.42-12.7-1.04,6.5-2.24,14.76-6.9,19.32Z"/></g></g><g id="Diners_Club"><g><path class="cls-19" d="M2383.07,619.24c49.42,.24,94.54-40.3,94.54-89.62,0-53.93-45.11-91.2-94.54-91.19h-42.54c-50.01-.01-91.18,37.27-91.18,91.19,0,49.33,41.17,89.85,91.18,89.62h42.54Z"/><path class="cls-12" d="M2359.5,577.65v-97.92c19.68,7.55,33.66,26.61,33.69,48.96-.04,22.35-14.01,41.4-33.69,48.96m-71.22-48.96c.04-22.34,14-41.39,33.67-48.96v97.9c-19.67-7.57-33.63-26.6-33.67-48.95m52.45-82.77c-45.7,.01-82.74,37.05-82.75,82.77,0,45.71,37.04,82.74,82.75,82.75,45.71-.01,82.76-37.05,82.76-82.75,0-45.71-37.05-82.75-82.76-82.77"/><path class="cls-23" d="M2156.89,680.94c0,7.36,5.26,8.22,9.94,8.22,20.65,0,27.43-15.58,27.43-29.82,0-17.87-11.47-30.77-29.91-30.77-3.93,0-5.73,.28-7.46,.38v52Zm-9.37-44.83c0-8.6-4.49-8.03-8.78-8.12v-2.48c3.73,.18,7.55,.18,11.28,.18,4.01,0,9.46-.18,16.54-.18,24.75,0,38.23,16.53,38.23,33.45,0,9.47-5.54,33.27-39.38,33.27-4.87,0-9.37-.19-13.86-.19s-8.51,.09-12.81,.19v-2.49c5.73-.58,8.51-.77,8.78-7.27v-46.36Z"/><path class="cls-23" d="M2218.37,633.82c-2.49,0-4.69-2.29-4.69-4.78s2.3-4.6,4.69-4.6,4.68,2.01,4.68,4.6-2.11,4.78-4.68,4.78m-10.23,55.92h1.82c2.67,0,4.58,0,4.58-3.16v-25.9c0-4.2-1.43-4.79-4.97-6.69v-1.53c4.49-1.35,9.85-3.15,10.23-3.44,.67-.38,1.24-.48,1.72-.48s.67,.57,.67,1.34v36.69c0,3.16,2.1,3.16,4.78,3.16h1.62v2.49c-3.25,0-6.6-.19-10.03-.19s-6.89,.09-10.42,.19v-2.49Z"/><path class="cls-23" d="M2237.67,661.25c0-3.53-1.06-4.49-5.54-6.3v-1.82c4.11-1.34,8.02-2.58,12.61-4.59,.29,0,.57,.2,.57,.95v6.22c5.46-3.91,10.14-7.17,16.55-7.17,8.12,0,10.98,5.93,10.98,13.38v24.65c0,3.16,2.1,3.16,4.78,3.16h1.72v2.49c-3.36,0-6.7-.19-10.13-.19s-6.89,.09-10.33,.19v-2.49h1.72c2.68,0,4.58,0,4.58-3.16v-24.75c0-5.45-3.33-8.12-8.79-8.12-3.06,0-7.93,2.48-11.1,4.59v28.28c0,3.16,2.11,3.16,4.79,3.16h1.72v2.49c-3.34,0-6.7-.19-10.14-.19s-6.88,.09-10.32,.19v-2.49h1.72c2.68,0,4.59,0,4.59-3.16v-25.33Z"/><path class="cls-23" d="M2303.54,662.78c2.39,0,2.67-1.24,2.67-2.39,0-4.87-2.96-8.79-8.32-8.79-5.83,0-9.84,4.29-10.99,11.18h16.64Zm-16.92,3.06c-.2,.86-.2,2.29,0,5.54,.56,9.08,6.41,16.53,14.04,16.53,5.27,0,9.38-2.87,12.91-6.4l1.33,1.34c-4.4,5.83-9.85,10.8-17.68,10.8-15.2,0-18.26-14.72-18.26-20.84,0-18.74,12.62-24.28,19.3-24.28,7.75,0,16.07,4.87,16.16,15.01,0,.58,0,1.15-.09,1.73l-.87,.57h-26.85Z"/><path class="cls-23" d="M2316.63,689.74h2.58c2.67,0,4.58,0,4.58-3.16v-26.85c0-2.96-3.53-3.54-4.97-4.3v-1.43c6.98-2.97,10.8-5.45,11.68-5.45,.56,0,.85,.29,.85,1.25v8.6h.2c2.38-3.73,6.4-9.85,12.23-9.85,2.39,0,5.45,1.62,5.45,5.07,0,2.58-1.81,4.88-4.49,4.88-2.97,0-2.97-2.3-6.32-2.3-1.63,0-6.98,2.2-6.98,7.94v22.45c0,3.16,1.91,3.16,4.59,3.16h5.35v2.49c-5.26-.1-9.26-.19-13.37-.19s-7.93,.09-11.37,.19v-2.49Z"/><path class="cls-23" d="M2353.43,678.94c1.24,6.31,5.06,11.66,12.05,11.66,5.63,0,7.73-3.44,7.73-6.78,0-11.28-20.83-7.65-20.83-23.04,0-5.36,4.31-12.24,14.82-12.24,3.05,0,7.16,.86,10.89,2.78l.67,9.74h-2.2c-.96-6.02-4.3-9.46-10.42-9.46-3.83,0-7.45,2.2-7.45,6.31,0,11.19,22.18,7.74,22.18,22.75,0,6.31-5.06,13-16.44,13-3.82,0-8.32-1.34-11.66-3.25l-1.05-10.99,1.72-.48Z"/><path class="cls-23" d="M2467.18,642.8h-2.38c-1.82-11.18-9.76-15.67-20.46-15.67s-26.96,7.36-26.96,30.3c0,19.32,13.78,33.17,28.49,33.17,9.46,0,17.3-6.5,19.22-16.54l2.2,.57-2.2,13.96c-4.02,2.49-14.82,5.07-21.13,5.07-22.36,0-36.51-14.44-36.51-35.94,0-19.6,17.49-33.65,36.22-33.65,7.74,0,15.2,2.49,22.56,5.08l.96,13.66Z"/><path class="cls-23" d="M2470.62,689.74h1.81c2.68,0,4.6,0,4.6-3.16v-53.23c0-6.22-1.43-6.41-5.07-7.46v-1.53c3.82-1.24,7.84-2.96,9.84-4.11,1.04-.57,1.81-1.05,2.1-1.05,.58,0,.77,.58,.77,1.34v66.04c0,3.16,2.1,3.16,4.78,3.16h1.62v2.49c-3.24,0-6.59-.19-10.03-.19s-6.88,.09-10.42,.19v-2.49Z"/><path class="cls-23" d="M2532,686.96c0,1.73,1.05,1.82,2.67,1.82,1.15,0,2.58-.09,3.83-.09v2.01c-4.12,.38-11.95,2.39-13.77,2.96l-.48-.29v-7.74c-5.73,4.68-10.13,8.03-16.92,8.03-5.16,0-10.51-3.35-10.51-11.37v-24.48c0-2.49-.38-4.88-5.73-5.35v-1.82c3.44-.1,11.08-.67,12.32-.67,1.06,0,1.06,.67,1.06,2.77v24.66c0,2.87,0,11.09,8.31,11.09,3.25,0,7.55-2.49,11.56-5.82v-25.72c0-1.91-4.59-2.96-8.02-3.91v-1.72c8.59-.58,13.95-1.34,14.91-1.34,.77,0,.77,.67,.77,1.72v35.26Z"/><path class="cls-23" d="M2551.01,681.42c0,3.63,3.44,9.76,9.84,9.76,10.23,0,14.53-10.04,14.53-18.55,0-10.32-7.83-18.92-15.29-18.92-3.55,0-6.51,2.3-9.09,4.49v23.22Zm0-26c3.82-3.25,8.99-6.88,14.24-6.88,11.09,0,17.78,9.66,17.78,20.08,0,12.52-9.18,25.04-22.85,25.04-7.07,0-10.8-2.29-13.28-3.35l-2.86,2.19-2-1.05c.85-5.64,1.33-11.19,1.33-17.02v-41.1c0-6.22-1.44-6.41-5.07-7.46v-1.53c3.83-1.24,7.84-2.96,9.85-4.11,1.05-.57,1.81-1.05,2.11-1.05,.57,0,.76,.58,.76,1.34v34.89Z"/><path class="cls-23" d="M2138.63,747.8h.73c1.87,0,3.85-.26,3.85-2.96v-27.25c0-2.71-1.97-2.97-3.85-2.97h-.73v-1.56c2.03,0,5.15,.21,7.71,.21s5.71-.21,8.16-.21v1.56h-.73c-1.86,0-3.85,.26-3.85,2.97v27.25c0,2.7,1.98,2.96,3.85,2.96h.73v1.57c-2.5,0-5.62-.21-8.21-.21s-5.62,.21-7.65,.21v-1.57Z"/><path class="cls-23" d="M2154.27,749.14v-1.11s-.5,0-.5,0c-1.86,0-4.07-.32-4.08-3.19v-27.25c0-2.87,2.22-3.2,4.08-3.2h.5v-1.11c-2.4,0-5.41,.21-7.94,.21s-5.46-.19-7.47-.21v1.11h.49c1.86,0,4.07,.32,4.07,3.2v27.25c0,2.87-2.22,3.19-4.07,3.19h-.49v1.11c2.01-.02,4.95-.21,7.42-.21s5.54,.2,7.99,.21m.22,.44c-2.52,0-5.63-.21-8.22-.21s-5.61,.21-7.65,.21h-.22v-2.01h.95c1.89-.04,3.61-.19,3.63-2.74v-27.25c-.02-2.54-1.73-2.71-3.63-2.74h-.95v-2.01h.22c2.04,0,5.16,.21,7.71,.21s5.7-.21,8.16-.21h.23v2.01h-.96c-1.89,.03-3.61,.2-3.63,2.74v27.25c.01,2.54,1.74,2.69,3.63,2.74h.96v2.01h-.23Z"/><path class="cls-23" d="M2190.23,739.11l.11-.1v-19.5c0-4.27-2.97-4.89-4.53-4.89h-1.15v-1.56c2.45,0,4.84,.21,7.28,.21,2.13,0,4.27-.21,6.4-.21v1.56h-.78c-2.19,0-4.63,.42-4.63,6.61v23.67c0,1.81,.05,3.63,.31,5.25h-1.97l-26.78-29.86v21.43c0,4.52,.88,6.08,4.89,6.08h.88v1.57c-2.23,0-4.47-.21-6.71-.21s-4.73,.21-7.07,.21v-1.57h.73c3.59,0,4.68-2.44,4.68-6.6v-21.91c0-2.91-2.4-4.67-4.73-4.67h-.68v-1.56c1.97,0,4,.21,5.98,.21,1.56,0,3.07-.21,4.63-.21l23.15,26.06Z"/><path class="cls-23" d="M2190.11,739.01h0s-.04-.05-.04-.05l.04,.05Zm.12,.11l.17-.15-.17,.15Zm1.04,10.8h1.72c-.24-1.56-.27-3.29-.27-5.02v-23.67c0-6.24,2.61-6.83,4.85-6.83h.55v-1.11c-2.05,.01-4.11,.21-6.17,.21-2.38,0-4.7-.19-7.05-.21v1.11s.91,0,.91,0c1.6,0,4.75,.71,4.75,5.12l-.07,19.65-.11,.11-.18,.16-23.13-26.15c-1.54,0-3.05,.21-4.64,.21-1.91,0-3.86-.19-5.75-.21v1.11s.45,0,.45,0c2.44,0,4.95,1.87,4.95,4.91v21.9c0,4.16-1.16,6.82-4.9,6.84l-.5-.02v1.12c2.26-.02,4.57-.21,6.85-.21s4.34,.19,6.48,.21v-1.1h-.66c-4.09-.02-5.11-1.8-5.11-6.32v-22.02l27.01,30.21Zm1.98,.45l-2.15-.08-26.39-29.42v20.85c.06,4.52,.75,5.8,4.66,5.85h1.11v2.01h-.23c-2.25,0-4.49-.21-6.71-.21-2.33,0-4.72,.21-7.08,.21h-.23v-2.01h.96c3.44-.02,4.42-2.23,4.46-6.37v-21.9c-.01-2.77-2.28-4.45-4.51-4.45h-.91v-2.01h.23c1.99,0,4.02,.2,5.98,.2,1.55,0,3.05-.2,4.81-.12l22.86,25.73v-19.13c-.03-4.14-2.79-4.64-4.3-4.67h-1.38v-2.01h.23c2.46,0,4.85,.2,7.28,.2,2.12,0,4.25-.2,6.4-.2h.23v2.01h-1c-2.15,.06-4.35,.25-4.41,6.38v23.67c0,1.81,.05,3.63,.31,5.21l.05,.26h-.27Z"/><path class="cls-23" d="M2206.13,715.66c-3.91,0-4.05,.94-4.83,4.73h-1.56c.21-1.45,.47-2.91,.63-4.42,.21-1.46,.31-2.91,.31-4.41h1.25c.42,1.56,1.72,1.51,3.13,1.51h26.83c1.41,0,2.71-.05,2.81-1.61l1.24,.21c-.2,1.4-.41,2.81-.57,4.21-.1,1.41-.1,2.81-.1,4.21l-1.56,.58c-.11-1.92-.37-5-3.85-5h-8.53v27.67c0,4.01,1.82,4.47,4.31,4.47h.99v1.57c-2.03,0-5.67-.21-8.48-.21-3.12,0-6.77,.21-8.8,.21v-1.57h.99c2.87,0,4.31-.26,4.31-4.36v-27.78h-8.53Z"/><path class="cls-23" d="M2226.63,749.59c-2.05,0-5.68-.21-8.48-.21-3.12,0-6.75,.21-8.8,.21h-.22v-2.01h1.21c2.87-.07,4.02-.1,4.08-4.14v-27.55h-8.3v-.46h8.75v28.01c0,4.17-1.68,4.59-4.54,4.6h-.77v1.09c2.05-.01,5.55-.2,8.57-.2,2.71,0,6.19,.19,8.25,.2v-1.09h-.76c-2.51,0-4.53-.62-4.53-4.71v-27.9h8.75c3.49,.01,3.95,2.98,4.06,4.91l1.12-.41c0-1.35,0-2.72,.1-4.09,.15-1.34,.34-2.66,.54-3.99l-.79-.13c-.24,1.51-1.7,1.59-3.01,1.58h-27.1c-1.22,0-2.56-.06-3.02-1.51h-.86c0,1.44-.11,2.83-.31,4.22-.15,1.43-.39,2.8-.58,4.18h1.11c.69-3.62,1.13-4.8,5.02-4.74v.46c-3.85,.07-3.76,.72-4.61,4.56l-.04,.18h-2l.03-.27c.21-1.45,.47-2.91,.63-4.42,.21-1.44,.31-2.89,.31-4.38v-.23h1.65l.04,.17c.35,1.31,1.32,1.32,2.64,1.34h27.1c1.45-.02,2.5-.04,2.59-1.4l.02-.24,.24,.05,1.47,.23-.03,.23c-.21,1.39-.41,2.8-.57,4.19-.1,1.39-.1,2.79-.1,4.19v.16l-.15,.06-1.84,.67v-.31c-.15-1.95-.36-4.78-3.64-4.78h-8.3v27.45c.05,3.92,1.6,4.19,4.08,4.24h1.22v2.01h-.22Z"/><path class="cls-23" d="M2237.6,747.8h.73c1.87,0,3.85-.26,3.85-2.96v-27.25c0-2.71-1.98-2.97-3.85-2.97h-.73v-1.56c3.17,0,8.59,.21,12.95,.21s9.78-.21,13.31-.21c-.09,2.23-.04,5.67,.11,7.96l-1.57,.42c-.25-3.38-.87-6.08-6.34-6.08h-7.22v13.62h6.18c3.12,0,3.8-1.76,4.11-4.58h1.56c-.1,2.03-.16,4.06-.16,6.09s.05,3.95,.16,5.93l-1.56,.31c-.31-3.12-.47-5.14-4.06-5.14h-6.23v12.12c0,3.38,3.01,3.38,6.33,3.38,6.25,0,9-.42,10.56-6.34l1.45,.36c-.68,2.77-1.3,5.52-1.76,8.28-3.33,0-9.31-.21-13.99-.21s-10.88,.21-13.84,.21v-1.57Z"/><path class="cls-23" d="M2265.23,749.13c.45-2.63,1.05-5.26,1.69-7.87l-1.03-.26c-1.56,5.82-4.57,6.34-10.71,6.3-3.28,0-6.55,0-6.57-3.61v-12.34h6.47c3.63-.04,4,2.15,4.26,5.11l1.13-.24c-.1-1.91-.15-3.83-.15-5.74s.05-3.91,.15-5.87h-1.13c-.29,2.71-1.14,4.61-4.31,4.58h-6.42v-14.08h7.46c5.41-.04,6.31,2.76,6.54,6.03l1.12-.3c-.09-1.47-.15-3.35-.15-5.09,0-.89,.02-1.73,.05-2.47-3.53,.01-8.8,.2-13.08,.2s-9.53-.19-12.72-.2v1.1h.51c1.85,0,4.06,.32,4.08,3.2v27.25c-.01,2.87-2.22,3.18-4.08,3.2h-.51v1.09c3.03,0,9.04-.2,13.61-.2s10.44,.2,13.8,.2m.19,.45c-3.34,0-9.32-.21-13.99-.21s-10.87,.21-13.84,.21h-.22v-2.01h.95c1.88-.03,3.59-.19,3.62-2.74v-27.25c-.02-2.54-1.73-2.71-3.62-2.74h-.95v-2.01h.22c3.17,0,8.59,.2,12.95,.2s9.77-.2,13.31-.2h.23v.23c-.05,.78-.06,1.71-.06,2.69,0,1.8,.05,3.76,.16,5.24v.19s-.17,.05-.17,.05l-1.83,.48v-.27c-.32-3.37-.77-5.83-6.13-5.87h-7.01v13.17s5.97,0,5.97,0c2.99-.03,3.53-1.56,3.88-4.36l.02-.21h2v.24c-.11,2.03-.17,4.05-.17,6.08s.06,3.94,.16,5.92v.18s-.18,.04-.18,.04l-1.81,.36-.02-.24c-.36-3.18-.38-4.92-3.83-4.96h-6.02v11.9c0,3.16,2.73,3.14,6.12,3.16,6.26-.04,8.77-.34,10.34-6.18l.06-.21,.21,.04,1.67,.43-.05,.22c-.68,2.75-1.3,5.5-1.76,8.26l-.04,.18h-.18Z"/><path class="cls-23" d="M2280.87,730.63h2.54c5.21,0,8.01-1.97,8.01-8.11,0-4.62-2.96-7.59-7.6-7.59-1.56,0-2.23,.16-2.95,.21v15.49Zm-6.66-12.06c0-3.79-2.08-3.95-3.7-3.95h-.94v-1.56c1.66,0,4.89,.21,8.06,.21s5.62-.21,8.37-.21c6.55,0,12.38,1.77,12.38,9.16,0,4.67-3.12,7.53-7.23,9.15l8.89,13.3c1.46,2.2,2.49,2.82,5.05,3.12v1.57c-1.72,0-3.38-.21-5.1-.21-1.61,0-3.28,.21-4.89,.21-4-5.25-7.44-10.87-10.82-16.86h-3.43v11.14c0,4.01,1.87,4.16,4.25,4.16h.94v1.57c-2.97,0-5.98-.21-8.95-.21-2.5,0-4.94,.21-7.54,.21v-1.57h.94c1.93,0,3.7-.88,3.7-2.8v-26.43Z"/><path class="cls-23" d="M2283.41,730.41c5.15-.05,7.74-1.83,7.79-7.88-.03-4.54-2.85-7.36-7.38-7.38-1.41,0-2.07,.13-2.73,.19v15.07h2.32Zm-2.54,.45h-.23v-15.92l.2-.02c.71-.06,1.41-.2,2.98-.2,4.74,0,7.82,3.08,7.83,7.82-.02,6.21-2.99,8.32-8.24,8.33h-2.54Zm0,1.43h3.55l.07,.11c3.39,5.98,6.8,11.59,10.63,16.74,1.59,0,3.26-.21,4.88-.21s3.26,.18,4.88,.2v-1.14c-2.44-.3-3.58-1.03-5-3.19l-9.05-13.54,.26-.1c4.07-1.6,7.08-4.38,7.09-8.95,0-7.22-5.62-8.89-12.15-8.92-2.74,0-5.24,.21-8.37,.21s-6.14-.19-7.84-.21v1.11h.72c1.62,0,3.91,.27,3.91,4.18v26.43c0,2.09-1.96,3.04-3.91,3.04h-.72v1.1c2.5,0,4.88-.2,7.32-.2,2.91,0,5.84,.2,8.72,.2v-1.1h-.71c-2.37,0-4.49-.3-4.49-4.4v-11.35h.23Zm24.24,17.3c-1.74,0-3.4-.21-5.11-.21-1.59,0-3.25,.21-5.06,.12-3.99-5.24-7.41-10.82-10.77-16.76h-3.07v10.9c.06,3.91,1.63,3.88,4.04,3.94h1.17v2.01h-.23c-2.97,0-5.99-.21-8.94-.21-2.48,0-4.92,.21-7.54,.21h-.22v-2.01h1.16c1.88-.01,3.45-.83,3.46-2.58v-26.43c-.04-3.69-1.85-3.67-3.46-3.72h-1.16v-2.01h.22c1.69,0,4.9,.2,8.07,.2s5.6-.2,8.37-.2c6.56,.01,12.59,1.82,12.61,9.38,0,4.69-3.1,7.63-7.12,9.26l8.74,13.08c1.45,2.16,2.36,2.7,4.89,3.02l.19,.03v1.98h-.22Z"/><path class="cls-23" d="M2340.41,739.11l.09-.1v-19.5c0-4.27-2.96-4.89-4.52-4.89h-1.14v-1.56c2.44,0,4.83,.21,7.28,.21,2.13,0,4.26-.21,6.4-.21v1.56h-.78c-2.18,0-4.63,.42-4.63,6.61v23.67c0,1.81,.05,3.63,.31,5.25h-1.97l-26.78-29.86v21.43c0,4.52,.88,6.08,4.89,6.08h.88v1.57c-2.23,0-4.47-.21-6.7-.21-2.35,0-4.74,.21-7.08,.21v-1.57h.72c3.59,0,4.69-2.44,4.69-6.6v-21.91c0-2.91-2.39-4.67-4.73-4.67h-.68v-1.56c1.97,0,4.01,.21,5.98,.21,1.55,0,3.06-.21,4.63-.21l23.15,26.06Z"/><path class="cls-23" d="M2340.28,739.01h0s-.04-.05-.04-.05l.04,.05Zm.13,.11l.16-.15-.16,.15Zm1.04,10.8h1.71c-.23-1.56-.27-3.29-.27-5.02v-23.67c0-6.24,2.63-6.82,4.86-6.83h.54v-1.11c-2.04,.01-4.1,.21-6.17,.21-2.39,0-4.71-.19-7.06-.21v1.11h.92c1.6,.01,4.75,.71,4.75,5.12l-.07,19.66-.1,.11-.16,.17-23.14-26.16c-1.55,0-3.05,.21-4.62,.21-1.93,0-3.87-.19-5.77-.21v1.11h.46c2.44,.01,4.95,1.86,4.95,4.9v21.9c0,4.17-1.17,6.83-4.9,6.85h-.51s0,1.09,0,1.09c2.25-.01,4.57-.2,6.85-.2s4.34,.19,6.49,.2v-1.09h-.66c-4.1,0-5.12-1.8-5.13-6.32v-22.01l27.02,30.2Zm1.97,.45l-2.14-.07-26.4-29.42v20.84c.06,4.53,.75,5.81,4.67,5.86h1.1v2.01h-.22c-2.25,0-4.48-.21-6.71-.21s-4.73,.21-7.06,.21h-.24v-2.01h.96c3.43-.01,4.42-2.23,4.45-6.38v-21.9c0-2.77-2.28-4.45-4.5-4.45h-.91v-2.01h.24c1.98,0,4.02,.21,5.98,.21,1.53,0,3.03-.21,4.78-.14l22.86,25.74v-19.13c-.01-4.13-2.78-4.64-4.29-4.67h-1.37v-2.01h.23c2.46,0,4.85,.21,7.28,.21,2.12,0,4.25-.21,6.4-.21h.23v2.01h-1c-2.15,.05-4.36,.25-4.41,6.38v23.67c0,1.81,.05,3.62,.31,5.22l.03,.26h-.25Z"/><path class="cls-23" d="M2364.48,718.88h-.11l-4.83,14.72h9.72l-4.78-14.72Zm-7.59,23.04c-.53,1.77-1.16,3.13-1.16,4.05,0,1.56,2.19,1.82,3.9,1.82h.58v1.57c-2.08-.11-4.21-.21-6.3-.21-1.87,0-3.73,.1-5.61,.21v-1.57h.32c2.03,0,3.75-1.2,4.51-3.38l8.33-23.87c.67-1.93,1.62-4.53,1.93-6.46,1.66-.57,3.74-1.61,4.73-2.23,.16-.05,.25-.11,.42-.11s.25,0,.37,.16c.15,.41,.3,.88,.47,1.3l9.57,27.2c.62,1.82,1.24,3.74,1.92,5.31,.63,1.46,1.72,2.07,3.44,2.07h.31v1.57c-2.34-.11-4.69-.21-7.17-.21s-5.16,.1-7.81,.21v-1.57h.57c1.19,0,3.23-.2,3.23-1.51,0-.68-.47-2.08-1.05-3.75l-2.02-6.03h-11.81l-1.66,5.41Z"/><path class="cls-23" d="M2364.26,718.95l.12-.04-.12,.04Zm-4.41,14.42h9.11l-4.53-13.94-4.58,13.94Zm-.62,.45l4.98-15.17h.28v.23h-.06s.06,0,.06,0v-.23h.16l4.94,15.17h-10.36Zm10.63,15.29c2.57-.09,5.1-.19,7.58-.19s4.68,.1,6.94,.19v-1.09h-.08c-1.78,.01-3.01-.69-3.65-2.22-.68-1.58-1.31-3.5-1.92-5.33l-9.57-27.2c-.16-.41-.31-.88-.45-1.25-.04-.05-.03-.05-.08-.05h-.09c-.11,0-.17,.03-.3,.07-1,.65-3.09,1.67-4.63,2.08-.32,1.97-1.26,4.57-1.94,6.49l-8.32,23.87c-.8,2.26-2.62,3.54-4.74,3.54h-.08v1.09c1.78-.09,3.58-.19,5.39-.19,2.01,0,4.06,.1,6.05,.19v-1.09h-.33c-1.7-.02-4.06-.21-4.13-2.04,0-1.04,.64-2.37,1.15-4.13l.23,.06-.23-.07,1.71-5.56h12.13l2.09,6.18c.58,1.67,1.06,3.05,1.06,3.82-.08,1.6-2.27,1.71-3.45,1.74h-.35v1.09Zm14.74,.46c-2.34-.1-4.68-.21-7.16-.21s-5.14,.11-7.8,.21h-.24s0-.22,0-.22v-1.8h.8c1.21,0,2.99-.27,2.99-1.27,.01-.59-.46-2.02-1.03-3.68l-1.98-5.88h-11.47l-1.62,5.25c-.53,1.77-1.15,3.15-1.15,4,.02,1.27,1.96,1.58,3.69,1.58h.8v2.03h-.24c-2.08-.11-4.2-.22-6.28-.22-1.86,0-3.74,.11-5.6,.21h-.24s0-.22,0-.22v-1.8h.53c1.94,0,3.55-1.11,4.3-3.22l8.33-23.88c.68-1.93,1.62-4.52,2.07-6.59,1.63-.55,3.72-1.6,4.72-2.23,.14-.05,.29-.12,.5-.12,.13,0,.41,.03,.57,.31,.15,.42,.31,.89,.47,1.31l9.58,27.2c.61,1.82,1.23,3.74,1.91,5.28,.6,1.39,1.56,1.93,3.23,1.94h.53v2.03h-.24Z"/><path class="cls-23" d="M2386.9,715.66c-3.9,0-4.06,.94-4.84,4.73h-1.57c.21-1.45,.47-2.91,.63-4.42,.21-1.46,.3-2.91,.3-4.41h1.25c.41,1.56,1.72,1.51,3.12,1.51h26.84c1.4,0,2.7-.05,2.8-1.61l1.25,.21c-.2,1.4-.41,2.81-.56,4.21-.12,1.41-.12,2.81-.12,4.21l-1.56,.58c-.09-1.92-.35-5-3.84-5h-8.53v27.67c0,4.01,1.82,4.47,4.31,4.47h.99v1.57c-2.03,0-5.67-.21-8.48-.21-3.11,0-6.76,.21-8.79,.21v-1.57h.99c2.86,0,4.32-.26,4.32-4.36v-27.78h-8.53Z"/><path class="cls-23" d="M2407.39,749.59c-2.04,0-5.69-.21-8.48-.21-3.11,0-6.75,.21-8.79,.21h-.23v-2.01h1.22c2.86-.07,4.02-.1,4.09-4.14v-27.55h-8.3v-.46h8.75v28.01c0,4.17-1.69,4.58-4.54,4.59h-.77v1.11c2.06-.02,5.55-.21,8.57-.21,2.72,0,6.19,.19,8.25,.21v-1.11h-.77c-2.5-.01-4.53-.61-4.54-4.7v-27.9h8.76c3.49,.01,3.95,2.98,4.05,4.91l1.13-.41c0-1.35,0-2.72,.11-4.08,.14-1.34,.34-2.67,.53-3.99l-.79-.14c-.24,1.51-1.71,1.6-3,1.58h-27.11c-1.22,.01-2.56-.06-3.03-1.52h-.85c-.01,1.44-.11,2.84-.32,4.23-.14,1.43-.39,2.81-.59,4.18h1.12c.69-3.62,1.14-4.8,5.03-4.74v.46c-3.86,.06-3.77,.72-4.62,4.56l-.04,.18h-2.01l.03-.26c.22-1.46,.47-2.92,.63-4.42,.21-1.45,.31-2.89,.31-4.39v-.23h1.64l.05,.17c.36,1.31,1.31,1.32,2.64,1.34,.09,0,.17,0,.27,0h26.84c1.43-.03,2.49-.04,2.58-1.4l.02-.25,.24,.05,1.47,.23-.04,.23c-.21,1.39-.41,2.8-.57,4.19-.11,1.39-.11,2.79-.11,4.19v.16l-.15,.06-1.84,.67v-.31c-.14-1.95-.35-4.78-3.63-4.78h-8.31v27.45c.05,3.92,1.61,4.19,4.08,4.24h1.22v2.01h-.22Z"/><path class="cls-23" d="M2418.61,747.8h.73c1.88,0,3.85-.26,3.85-2.96v-27.25c0-2.71-1.97-2.97-3.85-2.97h-.73v-1.56c2.03,0,5.15,.21,7.69,.21s5.73-.21,8.18-.21v1.56h-.73c-1.88,0-3.86,.26-3.86,2.97v27.25c0,2.7,1.98,2.96,3.86,2.96h.73v1.57c-2.5,0-5.62-.21-8.22-.21s-5.62,.21-7.65,.21v-1.57Z"/><path class="cls-23" d="M2434.25,749.13v-1.1h-.49c-1.86,0-4.08-.32-4.08-3.19v-27.25c0-2.87,2.21-3.2,4.08-3.2h.49v-1.1c-2.4,.01-5.41,.2-7.94,.2s-5.45-.19-7.46-.2v1.1h.5c1.85,0,4.07,.32,4.08,3.2v27.25c0,2.87-2.22,3.19-4.08,3.19h-.5v1.1c2.01-.02,4.95-.2,7.42-.2s5.53,.19,7.99,.2m.23,.45c-2.51,0-5.63-.21-8.22-.21s-5.61,.21-7.65,.21h-.22v-2.01h.95c1.88-.03,3.6-.19,3.61-2.74v-27.25c0-2.54-1.74-2.71-3.61-2.74h-.95v-2.01h.22c2.04,0,5.16,.2,7.69,.2s5.71-.2,8.18-.2h.22v2.01h-.94c-1.9,.03-3.61,.21-3.63,2.74v27.25c.02,2.54,1.73,2.71,3.63,2.74h.94v2.01h-.22Z"/><path class="cls-23" d="M2456.01,747.86c10.09,0,11.85-8.9,11.85-16.48s-4.1-16.81-12.74-16.81c-9.1,0-11.81,8.12-11.81,15.08,0,9.31,4.26,18.21,12.69,18.21m-.79-35.58c11.09,0,19.93,6.87,19.93,17.95,0,11.96-8.58,19.91-19.66,19.91s-19.45-7.49-19.45-18.67,8.37-19.19,19.19-19.19"/><path class="cls-23" d="M2443.09,729.65c.01-7,2.75-15.31,12.03-15.31,8.83,.02,12.95,9.39,12.97,17.04-.02,7.58-1.8,16.7-12.08,16.7v-.44c9.89-.01,11.6-8.67,11.63-16.26,0-7.54-4.06-16.56-12.51-16.58-8.92,.01-11.56,7.92-11.58,14.85,0,9.26,4.23,17.96,12.47,17.98v.44c-8.63,0-12.91-9.06-12.92-18.42m-7.28,1.83c.02-10.94,8.49-19.4,19.42-19.42v.45c-10.69,0-18.96,8.27-18.97,18.97,.02,11.06,8.32,18.43,19.24,18.44,10.97,0,19.43-7.84,19.44-19.69,0-10.94-8.71-17.7-19.71-17.72v-.45c11.17,.01,20.13,6.95,20.15,18.17-.01,12.09-8.7,20.13-19.88,20.15-11.13-.02-19.66-7.59-19.68-18.89"/><path class="cls-23" d="M2510.2,739.11l.11-.1v-19.5c0-4.27-2.97-4.89-4.53-4.89h-1.13v-1.56c2.44,0,4.83,.21,7.27,.21,2.14,0,4.27-.21,6.41-.21v1.56h-.79c-2.18,0-4.63,.42-4.63,6.61v23.67c0,1.81,.05,3.63,.32,5.25h-1.98l-26.79-29.86v21.43c0,4.52,.88,6.08,4.89,6.08h.89v1.57c-2.24,0-4.47-.21-6.71-.21s-4.74,.21-7.08,.21v-1.57h.73c3.6,0,4.68-2.44,4.68-6.6v-21.91c0-2.91-2.38-4.67-4.73-4.67h-.68v-1.56c1.98,0,4.01,.21,5.98,.21,1.56,0,3.06-.21,4.63-.21l23.15,26.06Z"/><path class="cls-23" d="M2510.08,739.01h0s-.04-.05-.04-.05l.04,.05Zm.12,.11l.17-.15-.17,.15Zm1.05,10.8h1.7c-.22-1.56-.27-3.29-.27-5.02v-23.67c0-6.25,2.62-6.82,4.85-6.83h.56v-1.11c-2.06,.01-4.11,.21-6.19,.21-2.37,0-4.69-.19-7.05-.21v1.11h.91c1.61,.01,4.75,.72,4.75,5.12l-.06,19.65-.1,.11-.17,.17-23.15-26.16c-1.54,0-3.05,.21-4.63,.21-1.92,0-3.87-.19-5.76-.21v1.11h.46c2.44,.01,4.95,1.86,4.95,4.9v21.91c0,4.16-1.16,6.82-4.9,6.84h-.51s0,1.09,0,1.09c2.26-.01,4.57-.2,6.86-.2,2.17,0,4.32,.19,6.48,.2v-1.09h-.67c-4.08,0-5.11-1.8-5.11-6.32v-22.02l27.02,30.21Zm1.98,.45l-2.15-.08-26.39-29.42v20.85c.06,4.52,.75,5.8,4.66,5.85h1.12v2.02h-.22c-2.25,0-4.48-.21-6.71-.21-2.33,0-4.72,.21-7.08,.21h-.21v-2.02h.95c3.43-.01,4.42-2.22,4.45-6.37v-21.91c0-2.77-2.27-4.45-4.51-4.45h-.9v-2.01h.21c1.99,0,4.02,.2,5.99,.2,1.54,0,3.04-.2,4.8-.12l22.85,25.73v-19.13c-.01-4.14-2.78-4.64-4.3-4.67h-1.37v-2.01h.24c2.45,0,4.85,.2,7.27,.2,2.13,0,4.25-.2,6.41-.2h.22v2.01h-1.01c-2.14,.06-4.35,.25-4.4,6.38v23.67c0,1.81,.04,3.63,.29,5.22l.04,.26h-.25Z"/><path class="cls-23" d="M2534.28,718.88h-.11l-4.85,14.72h9.74l-4.79-14.72Zm-7.6,23.04c-.51,1.77-1.14,3.13-1.14,4.05,0,1.56,2.19,1.82,3.9,1.82h.58v1.57c-2.08-.11-4.22-.21-6.3-.21-1.88,0-3.74,.1-5.61,.21v-1.57h.29c2.04,0,3.76-1.2,4.53-3.38l8.33-23.87c.68-1.93,1.62-4.53,1.92-6.46,1.67-.57,3.74-1.61,4.74-2.23,.15-.05,.25-.11,.41-.11s.26,0,.36,.16c.16,.41,.32,.88,.47,1.3l9.56,27.2c.62,1.82,1.24,3.74,1.93,5.31,.62,1.46,1.72,2.07,3.43,2.07h.32v1.57c-2.34-.11-4.69-.21-7.19-.21s-5.15,.1-7.8,.21v-1.57h.57c1.19,0,3.23-.2,3.23-1.51,0-.68-.47-2.08-1.05-3.75l-2.02-6.03h-11.81l-1.67,5.41Z"/><path class="cls-23" d="M2534.06,718.95l.11-.04-.11,.04Zm-4.42,14.42h9.1l-4.53-13.93-4.57,13.93Zm-.63,.45l4.99-15.17h.27v.23h-.06s.06,0,.06,0v-.23h.16l4.92,15.17h-10.34Zm10.62,15.31c2.57-.1,5.11-.2,7.58-.2s4.69,.1,6.95,.19v-1.09h-.09c-1.76,0-2.99-.69-3.64-2.22-.69-1.58-1.31-3.5-1.93-5.32l-9.57-27.21c-.15-.41-.31-.88-.44-1.24-.04-.06-.04-.06-.08-.06h-.1c-.11,0-.17,.04-.29,.07-1.01,.64-3.09,1.68-4.63,2.08-.32,1.97-1.27,4.56-1.94,6.49l-8.33,23.87c-.79,2.26-2.6,3.54-4.73,3.54h-.08v1.09c1.79-.09,3.58-.19,5.39-.19,2.02,0,4.07,.1,6.07,.19v-1.09h-.35c-1.69-.02-4.06-.2-4.13-2.05,0-1.03,.66-2.36,1.16-4.12l.21,.06-.21-.07,1.71-5.56h12.13l2.08,6.18c.58,1.68,1.05,3.05,1.05,3.82-.08,1.6-2.26,1.71-3.45,1.74h-.35v1.1Zm14.74,.46c-2.34-.09-4.68-.21-7.16-.21s-5.14,.12-7.79,.21h-.23s0-.22,0-.22v-1.79h.79c1.21,0,3-.28,3.01-1.28,.01-.59-.46-2.01-1.04-3.68l-1.98-5.88h-11.48l-1.61,5.25c-.52,1.78-1.14,3.15-1.13,3.99,0,1.28,1.95,1.6,3.67,1.6h.79v2.02h-.23c-2.08-.1-4.21-.22-6.28-.22-1.86,0-3.73,.12-5.61,.21h-.23s0-.22,0-.22v-1.79h.52c1.94-.01,3.56-1.12,4.32-3.23l8.32-23.88c.67-1.93,1.6-4.52,2.06-6.59,1.63-.57,3.72-1.61,4.73-2.24,.13-.05,.28-.12,.49-.12,.14-.01,.41,.02,.57,.31,.15,.41,.31,.88,.48,1.3l9.57,27.2c.62,1.82,1.24,3.74,1.92,5.29,.61,1.38,1.56,1.92,3.22,1.94h.54v2.02h-.24Z"/><path class="cls-23" d="M2567.51,744.27c0,2.09,1.45,2.71,3.11,2.92,2.13,.16,4.47,.16,6.87-.11,2.18-.26,4.05-1.5,4.99-2.81,.83-1.15,1.3-2.6,1.61-3.74h1.51c-.57,2.96-1.3,5.88-1.93,8.85-4.57,0-9.16-.21-13.72-.21s-9.16,.21-13.73,.21v-1.57h.72c1.88,0,3.91-.26,3.91-3.48v-26.73c0-2.71-2.03-2.97-3.91-2.97h-.72v-1.56c2.75,0,5.46,.21,8.21,.21s5.26-.21,7.91-.21v1.56h-1.31c-1.97,0-3.52,.06-3.52,2.81v26.84Z"/><path class="cls-23" d="M2583.49,749.13c.6-2.82,1.28-5.58,1.84-8.39h-1.07c-.32,1.13-.78,2.53-1.6,3.66-.97,1.34-2.89,2.62-5.15,2.89-1.36,.14-2.71,.21-3.99,.21-1.01,0-1.98-.04-2.92-.11-1.7-.19-3.33-.92-3.33-3.14v-26.84c0-2.89,1.83-3.04,3.77-3.04h1.08v-1.1c-2.56,.01-5.09,.2-7.68,.2s-5.33-.19-7.99-.2v1.1h.5c1.86,0,4.13,.32,4.13,3.19v26.74c0,3.37-2.26,3.71-4.13,3.71h-.5v1.1c4.5,0,8.99-.2,13.51-.2s9.03,.2,13.54,.2m.19,.45c-4.58,0-9.16-.21-13.72-.21s-9.15,.21-13.74,.21h-.22v-2.01h.95c1.89-.04,3.67-.17,3.69-3.26v-26.74c-.02-2.53-1.79-2.7-3.69-2.74h-.95v-2.01h.22c2.77,0,5.48,.2,8.22,.2s5.24-.2,7.91-.2h.21v2.01h-1.52c-2.01,.05-3.27-.04-3.31,2.58v26.84c.02,1.94,1.28,2.46,2.91,2.69,.92,.07,1.88,.1,2.88,.1,1.27,0,2.6-.06,3.94-.2,2.12-.25,3.94-1.47,4.84-2.72,.8-1.11,1.26-2.54,1.57-3.67l.05-.17h1.96l-.05,.28c-.59,2.97-1.3,5.88-1.93,8.84l-.05,.18h-.17Z"/><path class="cls-23" d="M2584.09,717.08h.65c.71,0,1.04-.54,1.04-1.4s-.51-1.18-1.07-1.18h-.61v2.58Zm-1.85,2.89v-.27c.67-.1,.8-.07,.8-.49v-4.05c0-.57-.06-.76-.77-.73v-.28h2.81c.97,0,1.85,.46,1.85,1.45,0,.82-.54,1.42-1.29,1.66l.9,1.25c.42,.57,.89,1.1,1.21,1.29v.18h-1.07c-.51,0-.96-1.08-1.96-2.52h-.61v1.82c0,.36,.13,.34,.8,.44v.27h-2.65Zm2.73,1.55c2.45,0,4.33-2.09,4.33-4.44s-1.85-4.47-4.33-4.47-4.34,2.11-4.34,4.47,1.88,4.44,4.34,4.44m0-9.93c3.13,0,5.48,2.41,5.48,5.49s-2.34,5.46-5.48,5.46-5.48-2.39-5.48-5.46,2.35-5.49,5.48-5.49"/></g></g><g id="Pix"><g id="layer1"><g id="path2356"><path class="cls-15" d="M256.59,699.6c-2.16,0-3.9-1.75-3.9-3.9v-126.75c0-25.44,20.69-46.13,46.13-46.13l37.43,.06c25.35,.05,45.98,20.72,45.98,46.07v26.98c0,25.44-20.69,46.13-46.13,46.13h-52.88c-2.16,0-3.9-1.75-3.9-3.9s1.75-3.9,3.9-3.9h52.88c21.13,0,38.32-17.19,38.32-38.32v-26.98c0-21.05-17.13-38.22-38.18-38.26l-37.42-.06c-21.13,0-38.32,17.19-38.32,38.32v126.75c0,2.16-1.75,3.9-3.9,3.9Z"/></g><g id="path2360"><path class="cls-15" d="M422.33,642.61c-2.16,0-3.9-1.75-3.9-3.9v-94.68c0-7.4-6.02-13.43-13.42-13.43h-16.23c-2.16,0-3.9-1.75-3.9-3.9s1.75-3.9,3.9-3.9h16.23c11.71,0,21.23,9.52,21.23,21.23v94.68c0,2.16-1.75,3.9-3.9,3.9Z"/></g><g id="path2364"><path class="cls-14" d="M418.85,512.03l-7.36-7.36c-1.83-1.83-1.83-4.79,0-6.61l7.36-7.36c1.83-1.83,4.8-1.83,6.62,0l7.36,7.36c1.83,1.83,1.83,4.79,0,6.61l-7.36,7.36c-1.83,1.83-4.79,1.83-6.61,0"/></g><g id="path2368"><path class="cls-15" d="M538.14,580.98c-4.38,0-8.5-1.71-11.59-4.8l-37.65-37.65c-5.16-5.16-12.02-8-19.32-8h-16.1c-2.16,0-3.9-1.75-3.9-3.9s1.75-3.9,3.9-3.9h16.1c9.38,0,18.21,3.65,24.84,10.29l37.65,37.66c1.62,1.62,3.78,2.52,6.07,2.52s4.45-.89,6.07-2.52l37.52-37.52c6.64-6.63,15.46-10.29,24.84-10.29h13.09c2.16,0,3.9,1.75,3.9,3.9s-1.75,3.9-3.9,3.9h-13.09c-7.3,0-14.16,2.84-19.32,8l-37.52,37.52c-3.1,3.1-7.21,4.8-11.59,4.8Z"/></g><g id="path2372"><path class="cls-15" d="M469.58,641.79h-16.1c-2.16,0-3.9-1.75-3.9-3.9s1.75-3.9,3.9-3.9h16.1c7.3,0,14.16-2.84,19.32-8l37.66-37.65c3.09-3.1,7.21-4.8,11.59-4.8s8.5,1.71,11.59,4.8l37.52,37.52c5.16,5.16,12.02,8,19.32,8h13.09c2.16,0,3.9,1.75,3.9,3.9s-1.75,3.9-3.9,3.9h-13.09c-9.38,0-18.2-3.65-24.84-10.29l-37.52-37.52c-1.62-1.62-3.78-2.52-6.07-2.52s-4.45,.89-6.07,2.51l-37.66,37.66c-6.64,6.64-15.46,10.29-24.84,10.29Z"/></g><g id="path2376"><path class="cls-14" d="M160.61,661.94c-8.08,0-15.68-3.15-21.39-8.86l-30.89-30.89c-2.17-2.17-5.95-2.17-8.12,0l-31,31c-5.71,5.71-13.31,8.86-21.39,8.86h-6.09l39.12,39.12c12.22,12.22,32.03,12.22,44.25,0l39.23-39.23h-3.72Z"/></g><g id="path2380"><path class="cls-14" d="M47.81,552.68c8.08,0,15.68,3.15,21.39,8.86l31,31.01c2.23,2.23,5.88,2.24,8.12,0l30.89-30.89c5.71-5.71,13.31-8.86,21.39-8.86h3.72l-39.23-39.23c-12.22-12.22-32.03-12.22-44.25,0l-39.12,39.12h6.09Z"/></g><g id="path2384"><path class="cls-14" d="M196.78,585.24l-23.71-23.71c-.52,.21-1.09,.34-1.68,.34h-10.78c-5.57,0-11.03,2.26-14.97,6.2l-30.89,30.89c-2.89,2.89-6.69,4.34-10.48,4.34s-7.59-1.45-10.48-4.33l-31-31c-3.94-3.94-9.39-6.2-14.97-6.2h-13.25c-.57,0-1.09-.13-1.59-.32l-23.8,23.8c-12.22,12.22-12.22,32.03,0,44.25l23.8,23.8c.5-.19,1.03-.32,1.59-.32h13.25c5.57,0,11.03-2.26,14.97-6.2l31-31c5.6-5.6,15.37-5.6,20.97,0l30.89,30.89c3.94,3.94,9.39,6.2,14.97,6.2h10.78c.6,0,1.16,.13,1.68,.34l23.71-23.71c12.22-12.22,12.22-32.03,0-44.25"/></g><g id="path2388"><path class="cls-15" d="M288.77,684.92c-1.75,0-3.79,.42-5.8,.89v7.72c1.4,.51,2.99,.76,4.52,.76,3.87,0,5.71-1.31,5.71-4.72,0-3.21-1.5-4.65-4.43-4.65m-7.11,14.34v-15.27h1.06l.11,.67c1.79-.42,4.27-.97,6.04-.97,1.44,0,2.81,.22,3.96,1.15,1.33,1.09,1.75,2.83,1.75,4.74,0,2-.67,3.88-2.48,4.92-1.26,.71-2.97,1-4.49,1s-3.08-.24-4.65-.71v4.49h-1.31Z"/></g><g id="path2392"><path class="cls-15" d="M304.31,684.87c-3.87,0-5.6,1.22-5.6,4.63s1.7,4.78,5.6,4.78,5.58-1.2,5.58-4.61-1.7-4.8-5.58-4.8m4.98,9.41c-1.28,.93-3.01,1.19-4.98,1.19s-3.74-.29-5-1.19c-1.42-1-1.99-2.64-1.99-4.69s.58-3.7,1.99-4.72c1.26-.91,2.99-1.19,5-1.19s3.7,.29,4.98,1.19c1.44,1.02,1.99,2.68,1.99,4.69s-.58,3.72-1.99,4.72"/></g><g id="path2396"><path class="cls-15" d="M327.63,695.17l-4.32-9.27h-.09l-4.25,9.27h-1.17l-4.6-11.18h1.44l3.83,9.39h.09l4.16-9.39h1.2l4.27,9.39h.09l3.74-9.39h1.39l-4.6,11.18h-1.17Z"/></g><g id="path2400"><path class="cls-15" d="M341.76,684.85c-3.59,0-4.8,1.59-5.03,3.9h10.05c-.11-2.55-1.42-3.9-5.03-3.9m-.04,10.63c-2.15,0-3.54-.31-4.65-1.24-1.31-1.13-1.75-2.77-1.75-4.65s.6-3.7,2.08-4.78c1.24-.86,2.77-1.13,4.36-1.13,1.44,0,3.1,.15,4.47,1.09,1.62,1.08,1.93,2.99,1.93,5.16h-11.47c.04,2.3,.8,4.34,5.13,4.34,2.06,0,3.99-.33,5.78-.64v1.17c-1.86,.33-3.92,.69-5.89,.69"/></g><g id="path2404"><path class="cls-15" d="M351.9,695.17v-11.18h1.06l.11,.67c2.37-.6,3.47-.97,5.56-.97h.16v1.24h-.31c-1.75,0-2.81,.24-5.27,.89v9.36h-1.31Z"/></g><g id="path2408"><path class="cls-15" d="M366.37,684.85c-3.59,0-4.8,1.59-5.03,3.9h10.05c-.11-2.55-1.42-3.9-5.03-3.9m-.04,10.63c-2.15,0-3.54-.31-4.65-1.24-1.31-1.13-1.75-2.77-1.75-4.65s.6-3.7,2.08-4.78c1.24-.86,2.77-1.13,4.36-1.13,1.44,0,3.1,.15,4.47,1.09,1.62,1.08,1.93,2.99,1.93,5.16h-11.47c.04,2.3,.8,4.34,5.13,4.34,2.06,0,3.98-.33,5.78-.64v1.17c-1.86,.33-3.92,.69-5.89,.69"/></g><g id="path2412"><path class="cls-15" d="M387.08,685.63c-1.39-.51-2.99-.75-4.52-.75-3.87,0-5.71,1.31-5.71,4.72,0,3.23,1.51,4.65,4.43,4.65,1.75,0,3.79-.42,5.8-.86v-7.75Zm.24,9.54l-.11-.67c-1.79,.42-4.27,.98-6.04,.98-1.44,0-2.81-.2-3.96-1.15-1.33-1.09-1.75-2.83-1.75-4.74s.66-3.88,2.48-4.89c1.26-.73,2.97-1.02,4.52-1.02s3.06,.27,4.63,.71v-5.11h1.31v15.89h-1.06Z"/></g><g id="path2416"><path class="cls-15" d="M407.53,684.92c-1.75,0-3.79,.42-5.8,.89v7.7c1.42,.53,2.99,.78,4.52,.78,3.87,0,5.71-1.31,5.71-4.72,0-3.21-1.5-4.65-4.43-4.65m3.34,9.56c-1.26,.71-2.97,1-4.49,1-1.66,0-3.32-.29-5-.84l-.07,.53h-.89v-15.89h1.31v5.33c1.79-.4,4.21-.93,5.91-.93,1.44,0,2.81,.22,3.96,1.15,1.33,1.09,1.75,2.83,1.75,4.74,0,2-.67,3.88-2.48,4.92"/></g><g id="path2420"><path class="cls-15" d="M415.09,699.46v-1.22c.64,.06,1.24,.11,1.66,.11,1.62,0,2.59-.47,3.5-2.3l.42-.88-5.84-11.18h1.51l5,9.65h.09l4.76-9.65h1.48l-6.29,12.55c-1.15,2.28-2.39,3.03-4.67,3.03-.51,0-1.06-.04-1.62-.11"/></g><g id="path2424"><path class="cls-15" d="M445.66,688.79h-4.34v3.92h4.36c2.99,0,4.12-.33,4.12-1.97,0-1.75-1.55-1.95-4.14-1.95m-.8-6.35h-3.54v3.98h3.56c2.94,0,4.12-.35,4.12-2.01,0-1.77-1.48-1.97-4.14-1.97m6.73,11.67c-1.6,1.02-3.52,1.06-7.04,1.06h-6.62v-15.16h6.46c3.03,0,4.89,.04,6.44,.97,1.11,.66,1.55,1.68,1.55,3.01,0,1.59-.66,2.66-2.39,3.37v.09c1.95,.45,3.21,1.44,3.21,3.59,0,1.46-.53,2.41-1.62,3.08"/></g><g id="path2428"><path class="cls-15" d="M466.45,690.47c-1.31-.11-2.63-.18-4.03-.18-2.28,0-3.08,.46-3.08,1.5,0,.97,.67,1.51,2.41,1.51,1.46,0,3.21-.33,4.69-.67v-2.17Zm.66,4.69l-.09-.66c-1.9,.47-4.12,.97-6.07,.97-1.2,0-2.48-.16-3.39-.82-.84-.6-1.24-1.57-1.24-2.7,0-1.26,.55-2.44,1.88-3.03,1.17-.55,2.75-.6,4.19-.6,1.17,0,2.74,.06,4.05,.15v-.2c0-1.75-1.15-2.32-4.3-2.32-1.22,0-2.7,.06-4.12,.2v-2.26c1.57-.13,3.34-.22,4.8-.22,1.95,0,3.96,.16,5.2,1.04,1.28,.91,1.53,2.17,1.53,3.83v6.62h-2.46Z"/></g><g id="path2432"><path class="cls-15" d="M484.17,695.17v-6.18c0-2.03-1.04-2.77-2.9-2.77-1.37,0-3.1,.35-4.56,.71v8.23h-3.12v-11.18h2.55l.11,.71c1.97-.51,4.16-1.02,5.98-1.02,1.37,0,2.77,.2,3.83,1.15,.88,.8,1.22,1.9,1.22,3.5v6.84h-3.1Z"/></g><g id="path2436"><path class="cls-15" d="M496.08,695.48c-1.44,0-3.01-.2-4.16-1.17-1.37-1.11-1.77-2.86-1.77-4.74,0-1.77,.58-3.7,2.28-4.78,1.4-.91,3.12-1.11,4.91-1.11,1.28,0,2.55,.09,3.94,.22v2.39c-1.13-.11-2.48-.2-3.56-.2-2.97,0-4.36,.93-4.36,3.5,0,2.41,1.04,3.45,3.47,3.45,1.42,0,3.08-.27,4.69-.58v2.3c-1.75,.36-3.65,.71-5.45,.71"/></g><g id="path2440"><path class="cls-15" d="M510.75,686.02c-2.97,0-4.27,.93-4.27,3.48s1.28,3.63,4.27,3.63,4.23-.91,4.23-3.45-1.26-3.65-4.23-3.65m5.36,8.28c-1.37,.93-3.17,1.17-5.36,1.17s-4.03-.27-5.38-1.17c-1.55-1.02-2.1-2.7-2.1-4.71s.55-3.72,2.1-4.74c1.35-.91,3.14-1.17,5.38-1.17s3.98,.27,5.36,1.17c1.55,1.02,2.08,2.72,2.08,4.71s-.55,3.72-2.08,4.74"/></g><g id="path2444"><path class="cls-15" d="M536.21,695.48c-1.88,0-3.92-.31-5.45-1.57-1.81-1.51-2.37-3.83-2.37-6.33,0-2.23,.71-4.89,3.08-6.44,1.84-1.19,4.12-1.44,6.42-1.44,1.68,0,3.41,.11,5.29,.27v2.72c-1.62-.13-3.61-.24-5.16-.24-4.32,0-6.15,1.64-6.15,5.13s1.7,5.16,4.89,5.16c2.08,0,4.4-.42,6.75-.91v2.7c-2.35,.47-4.8,.95-7.31,.95"/></g><g id="path2448"><path class="cls-15" d="M552.68,685.67c-2.59,0-3.59,.93-3.79,2.64h7.53c-.09-1.82-1.15-2.64-3.74-2.64m-.47,9.81c-1.84,0-3.5-.22-4.74-1.24-1.33-1.1-1.79-2.77-1.79-4.67,0-1.7,.55-3.61,2.1-4.71,1.37-.97,3.12-1.17,4.89-1.17,1.59,0,3.48,.18,4.85,1.13,1.79,1.26,1.95,3.21,1.97,5.51h-10.62c.07,1.71,.97,2.81,4.12,2.81,1.95,0,4.12-.29,5.96-.58v2.19c-2.15,.36-4.49,.73-6.73,.73"/></g><g id="path2452"><path class="cls-15" d="M573.39,695.17v-6.18c0-2.03-1.04-2.77-2.9-2.77-1.37,0-3.1,.35-4.56,.71v8.23h-3.12v-11.18h2.55l.11,.71c1.97-.51,4.16-1.02,5.98-1.02,1.37,0,2.77,.2,3.83,1.15,.88,.8,1.22,1.9,1.22,3.5v6.84h-3.1Z"/></g><g id="path2456"><path class="cls-15" d="M585.37,695.48c-1.5,0-2.88-.42-3.63-1.59-.55-.8-.82-1.88-.82-3.39v-4.19h-2.26v-2.32h2.26l.33-3.39h2.77v3.39h4.4v2.32h-4.4v3.59c0,.86,.07,1.59,.31,2.13,.33,.75,1.06,1.04,2.04,1.04,.73,0,1.62-.11,2.24-.22v2.23c-1.02,.2-2.19,.4-3.23,.4"/></g><g id="path2460"><path class="cls-15" d="M591.47,695.17v-11.18h2.55l.11,.71c2.06-.58,3.59-1.02,5.53-1.02,.09,0,.22,0,.4,.02v2.66c-.35-.02-.77-.02-1.08-.02-1.53,0-2.68,.18-4.38,.58v8.26h-3.12Z"/></g><g id="path2464"><path class="cls-15" d="M611.41,690.47c-1.31-.11-2.63-.18-4.03-.18-2.28,0-3.08,.46-3.08,1.5,0,.97,.67,1.51,2.41,1.51,1.46,0,3.21-.33,4.69-.67v-2.17Zm.66,4.69l-.09-.66c-1.9,.47-4.12,.97-6.07,.97-1.2,0-2.48-.16-3.39-.82-.84-.6-1.24-1.57-1.24-2.7,0-1.26,.55-2.44,1.88-3.03,1.17-.55,2.74-.6,4.18-.6,1.17,0,2.74,.06,4.05,.15v-.2c0-1.75-1.15-2.32-4.3-2.32-1.22,0-2.7,.06-4.12,.2v-2.26c1.57-.13,3.34-.22,4.8-.22,1.95,0,3.96,.16,5.2,1.04,1.28,.91,1.53,2.17,1.53,3.83v6.62h-2.46Z"/></g><g id="path2466"><path class="cls-15" d="M618.54,679.27h3.12v15.89h-3.12v-15.89Z"/></g></g></g></g></svg>